<?xml version="1.0" encoding="utf-8"?>
<!-- Generator: Adobe Illustrator 22.1.0, SVG Export Plug-In . SVG Version: 6.00 Build 0)  -->
<svg version="1.1"
	 id="svg4702" inkscape:version="0.92.3 (2405546, 2018-03-11)" sodipodi:docname="Suzuki logo.svg" xmlns:cc="http://creativecommons.org/ns#" xmlns:dc="http://purl.org/dc/elements/1.1/" xmlns:inkscape="http://www.inkscape.org/namespaces/inkscape" xmlns:rdf="http://www.w3.org/1999/02/22-rdf-syntax-ns#" xmlns:sodipodi="http://sodipodi.sourceforge.net/DTD/sodipodi-0.dtd" xmlns:svg="http://www.w3.org/2000/svg"
	 xmlns="http://www.w3.org/2000/svg" xmlns:xlink="http://www.w3.org/1999/xlink" x="0px" y="0px" viewBox="0 0 890 894"
	 style="enable-background:new 0 0 890 894;" xml:space="preserve">
<style type="text/css">
	.st0{fill:#E48312;}
</style>
<sodipodi:namedview  bordercolor="#666666" borderopacity="1" gridtolerance="10" guidetolerance="10" id="namedview4704" inkscape:current-layer="svg4702" inkscape:cx="445" inkscape:cy="448.05531" inkscape:pageopacity="0" inkscape:pageshadow="2" inkscape:window-height="745" inkscape:window-maximized="1" inkscape:window-width="1366" inkscape:window-x="-8" inkscape:window-y="-8" inkscape:zoom="0.66331096" objecttolerance="10" pagecolor="#ffffff" showgrid="false">
	</sodipodi:namedview>
<path id="path4712" inkscape:connector-curvature="0" class="st0" d="M456.7,891.2c-3.3-3.7-2.1-6.7,8.2-20.5
	c29.4-39.2,47.7-75.4,57.5-113.7c1.8-7.1,3.8-13.6,4.5-14.4c0.7-0.8,0.9-2.7,0.5-4.6c-0.5-2.5-0.1-3.7,1.7-5.6
	c1.3-1.4,2.9-2.5,3.6-2.5c0.7,0,0.2-1.1-1.2-2.5c-3.1-3.1-3.1-6.6-0.1-9.4c3-2.8,7-2.8,9.6,0c3,3.2,2.6,7.3-0.9,9.9
	c-2.8,2.1-2.9,2.2-1,4c2.2,2.2,2.5,7.2,0.6,9c-0.7,0.7-1.1,2.6-0.9,4.4c0.8,7-10.5,43.9-20.3,65.8c-12.2,27.6-32,58.3-50,77.8
	C464.4,893.5,459.6,894.4,456.7,891.2L456.7,891.2z M398,890c-1.1-1.1-2-3.3-2-5.1c0-2.7,2.2-5.4,15.3-18.8
	c32.9-33.7,55.2-66.7,70.3-104.1c2.1-5.2,4.4-10.2,5.2-11.1s1.3-2.9,1.3-4.6c0-3.3,2.6-6.3,5.5-6.3c1.8,0,1.8-0.1,0-2
	c-4.2-4.6-1-12,5.1-12c3.8,0,6.4,2.9,6.4,7c0,3.1-0.8,4.4-3.7,5.9c-2.1,1.1-2.1,1.3-0.6,4c1.4,2.4,1.4,3.3,0.3,6
	c-0.7,1.7-1.7,3.1-2.2,3.1c-0.5,0-0.9,1.5-0.9,3.4c0,6.8-14.6,38.9-27.7,60.9c-13.5,22.6-34.2,48.2-52.1,64.5
	C404.8,892.9,402.1,894.1,398,890z M519,884c-2.9-2.9-2.5-5,2.6-13.7c13.5-22.7,28.4-57.4,34.9-81.1c6.1-22.1,11.7-55,11.5-66.5
	c-0.1-4,0.4-5.2,2.6-7.3c1.5-1.4,2.2-2.5,1.6-2.5c-4,0-5.7-8.3-2.4-11.3c2.4-2.2,7.5-2.1,9.5,0.2c2.4,2.7,2.2,8.8-0.4,10.2
	c-2,1.1-2,1.1,0.6,4.2c2,2.4,2.5,3.7,1.9,5.7c-0.4,1.4-0.6,5.1-0.5,8.2c0.5,20.2-9.1,66.2-19.5,92.5c-8.1,20.7-25.7,54.4-32.2,61.6
	C527.1,886.6,521.5,886.5,519,884L519,884z M336.7,880c-2-1.6-2.7-3-2.7-5.5c0-3,0.7-3.9,5.8-7.6c43.8-31.9,75.1-65,96.4-102.2
	c3.4-6,6.8-11.1,7.5-11.4s1.3-1.7,1.3-3.2c0-3,2.7-6,5.4-6c1.3,0,1.6-0.5,1.1-1.8c-1.8-4.7-1.7-7.1,0.4-9.1
	c2.9-2.9,8.5-2.8,10.5,0.1c3.3,4.6,0.8,10.8-4.3,10.8c-2.1,0-2.2,0.1-0.6,3.1c1.3,2.5,1.4,3.6,0.4,5.9c-0.6,1.6-1.8,3.1-2.6,3.4
	c-0.8,0.3-1.4,1.6-1.4,2.9c0,2.7-12.5,23.9-22.4,38.2c-21.7,31-46.5,55.6-77.1,76.5C342.4,882.2,340.4,882.9,336.7,880L336.7,880z
	 M583.3,869c-3.7-1.5-3.9-5.5-0.8-14c12.6-34.2,18.6-56.2,22.8-82.5c1.6-9.9,2.1-19.3,2.5-39.8c0.2-14.8,0.5-27.1,0.6-27.5
	s-0.4-2.2-1.2-4c-1.3-3-1.2-3.6,0.6-6l2-2.7l-2.9-2.6c-5.2-4.7-2.4-11.8,4.6-11.8c6,0,8.7,7.1,4.3,11.7c-1.7,1.8-1.8,2.3-0.7,2.3
	c3,0,5.1,3.7,4.6,7.9c-0.3,2.3-0.1,4.4,0.6,5.1c0.8,0.8,1.1,9.6,1.1,29.8c0,24.5-0.4,30.9-2.3,44c-3.8,25.8-11.3,52.3-21.9,77.5
	C591.9,869.3,589.4,871.5,583.3,869L583.3,869z M283.2,863.4c-2.3-1.6-3-6.6-1.4-9.1c0.4-0.7,6.1-4.2,12.7-7.9
	c39.8-22.3,75.1-51.4,98-80.9c3.8-4.9,8.4-10.5,10.2-12.3s3.3-4,3.3-4.8c0-2.2,4.6-6.4,7.1-6.4c1.7,0,2-0.4,1.4-1.8
	c-2.2-5,1.1-10.3,6.5-10.3c3.5,0,6,2.8,6,6.8c0,3.6-3,7.2-5.9,7.2c-1.6,0-1.8,0.5-1.4,3.9c0.4,3.2,0.1,4.4-1.8,6.3
	c-1.3,1.3-3.1,3.9-4,5.8c-3.1,6.5-22.3,29.5-36.8,43.9c-22.4,22.3-46.7,40.2-73.7,54.2C289.7,865.3,286.9,866,283.2,863.4
	L283.2,863.4z M639.5,843.6c-2.6-1.9-2.4-6.1,0.9-20.1c3.9-16.6,7.4-41.6,8.6-61.5c1.4-22.7-0.1-46.4-4.6-71.3
	c-0.9-4.8-1.4-9.7-1.1-10.7s0.1-2.2-0.5-2.6c-2.2-1.4-2.9-5.6-1.4-8.7c1.9-3.8,1.9-3.7-0.5-3.7c-4.4,0-6.2-7.7-2.8-11.7
	c1.6-2,7.5-1.5,9.8,0.7c2.4,2.4,2.6,7.2,0.5,9c-1.3,1.1-1,1.5,1.8,3c2.8,1.5,3.3,2.3,3.3,5.7c0,2.2,0.8,5,1.6,6.4
	c0.9,1.4,2.5,7.6,3.7,14c6.8,36.9,6.8,78.2,0.1,114.5c-3.1,16.6-8.1,34.6-10.1,36.7C646.7,845.3,642.1,845.6,639.5,843.6
	L639.5,843.6z M231.2,839.4c-2.3-1.6-3-6.6-1.4-9.2c0.4-0.7,7.3-3.9,15.2-7.1c19.1-7.8,29.6-12.7,42.1-19.7
	c24.9-13.9,49.4-32,67.3-50c5.1-5.1,10.2-9.6,11.4-9.9c1.2-0.4,2.1-1.5,2.1-2.4c0-2.5,3.2-5.1,6.3-5.1c2.4,0,2.6-0.3,2-3
	c-0.9-4.7,1.8-8,6.6-8c2.9,0,4.3,0.6,5.5,2.2c3.4,4.8,0.7,10.8-4.9,10.8c-3,0-3.3,0.2-2.8,2.5c0.8,4.1-0.6,7.4-3.2,8.1
	c-1.3,0.3-2.6,1.6-3,2.8c-0.8,3-25.8,27.4-38.4,37.4c-25.7,20.4-54.4,36.5-86.3,48.2C238,841.4,234.6,841.8,231.2,839.4L231.2,839.4
	z M690.5,812.8l-2.8-2.4l1.2-10.9c5.2-48.2,0-99.3-13.9-138.9c-1.7-4.8-2.9-9.4-2.6-10.1s-0.4-2.1-1.4-3c-2.1-1.9-2.7-7.9-0.9-8.9
	c2-1.2,1-2.5-2-2.5c-3.5,0-5.3-2.6-4.8-7.3c0.6-6.5,9.3-7.6,12.7-1.6c1.3,2.3,1.2,2.9-0.1,5.7c-1.5,3.1-1.5,3.2,0.7,3.2
	c3.6,0,5.9,2.3,6,6.1c0.1,1.9,0.9,4.1,1.8,4.9s3.5,7.3,5.8,14.4c12.5,39.1,17.6,77.7,15.1,114.5c-1.5,22.3-3.3,34.7-5.2,36.6
	C697.1,815.2,693.5,815.3,690.5,812.8z M175.7,804.2c-0.9-1-1.7-3.1-1.7-4.6c0-5.1,1.5-6.3,9.7-8.1c49.4-10.7,96.2-31.3,130.6-57.4
	c3.7-2.8,7.5-5.2,8.3-5.2s1.9-1.1,2.4-2.5c1.1-2.9,4.8-4.6,7.9-3.8c1.8,0.5,2.1,0.1,2.1-2.8c0-3.9,0.7-5.1,3.6-6.7
	c2.5-1.3,6.4-0.5,8.2,1.6c1.9,2.3,1.5,7.6-0.6,9.5c-1,0.9-3.2,1.7-4.9,1.7c-2.9,0-3.1,0.3-3.4,3.8c-0.3,3.2-0.8,4-4.1,5.6
	c-2.1,1-3.8,2.4-3.8,3.1c0,1.8-21.2,17.1-37,26.6c-31.8,19.3-62.8,31.5-99.3,38.9C181.4,806.5,177.8,806.5,175.7,804.2L175.7,804.2z
	 M740.5,772c-1.6-1.8-2.2-4.8-3.2-18.8c-3.7-49-14.3-90.3-32.8-127.1c-2.5-5-4.6-9.8-4.6-10.7s-1.1-2.5-2.5-3.6
	c-2.7-2.1-3.5-7.5-1.4-9.5c0.8-0.8,0.4-0.9-1.3-0.6c-3.3,0.6-7.8-3.1-7.8-6.5c0-6.7,7.3-9.7,11.8-4.8c2.4,2.5,2.7,4.8,1.1,7.8
	c-0.9,1.7-0.7,1.9,2.4,1.9c3.7,0,6.6,2.8,6.6,6.3c0,1,0.9,2.6,1.9,3.5c2.2,1.8,13.1,23.3,18.4,36.3c14.1,34.1,22.6,77.4,22.6,114.4
	c0,10.4-0.9,12.3-6,13.1C743.2,774.1,742.1,773.7,740.5,772z M128.6,760.8c-2.2-3.1-1.9-6.1,0.7-8.6c1.9-1.8,4.3-2.3,14.3-3.2
	c48-4.2,90.2-15.8,127.3-35.1c7.3-3.8,13.8-6.9,14.4-6.9s2-1.2,3.1-2.6c1.7-2.1,2.7-2.5,5.9-2.2c3.2,0.3,3.9,0.1,3.9-1.4
	c0-1,0.7-2.9,1.6-4.3c2-3.1,8.2-3.5,10.7-0.6c4.5,4.9,0.2,11.8-6.8,11c-1.9-0.2-3.2,0-2.9,0.5c1.3,2-2,6.6-5.7,8.1
	c-2.1,0.8-4.2,2.2-4.7,2.9c-1.1,1.9-25.2,14.4-38.3,20c-38.2,16.1-76.3,24.7-110.2,24.7C130.9,763,130,762.9,128.6,760.8
	L128.6,760.8z M781.7,727.8c-2-1.8-2.9-4.5-4.6-13.8c-4.1-21.5-11.6-47.7-19.8-68.5c-7.3-18.6-22.2-45.9-32.5-59.6
	c-2.1-2.7-4-6-4.3-7.4s-1.5-2.7-2.5-3.1c-2.6-0.8-4.2-4.2-3.6-7.4c0.5-2.5,0.3-2.7-2.3-2.3c-5.9,0.9-9.4-7.4-5-11.8
	c2.7-2.7,6.6-2.5,9.6,0.5c2,2,2.4,3.1,1.9,5.5c-0.6,2.8-0.5,3,2.8,3c3.9,0,6.7,2.5,6.7,5.8c0,1.3,0.6,2.2,1.5,2.2
	c3,0,19.4,24.4,30.3,45c15.8,29.8,26.8,63.4,31.6,96.1c2,13.4,2,12.5-0.9,15.4C787.5,730.6,784.8,730.7,781.7,727.8L781.7,727.8z
	 M422.2,727.8c-2.7-3.4-2.1-8.8,1.2-11c2.1-1.4,7.3-0.8,8.9,1.1c2.2,2.4,2.1,7.5-0.2,9.5C430,729.3,423.7,729.5,422.2,727.8
	L422.2,727.8z M457,727c-4.3-4.3-1-11,5.4-11c3.9,0,6.6,2.8,6.6,7.1C469,728.6,461.1,731.1,457,727z M387,723
	c-2.4-2.4-2.6-7.2-0.4-9.4c1.9-1.9,8.8-2.1,10.2-0.3C402.4,720,393.2,729.2,387,723z M496.1,721.9c-2.8-3-2.7-6.1,0.2-9.5
	c2-2.4,2.8-2.6,6-2c2.7,0.5,4,1.4,4.7,3.2c2.1,5.6,0.3,9.1-5.2,10C499,724.1,497.9,723.8,496.1,721.9L496.1,721.9z M103.1,718.6
	c-10.9-1.1-12.6-1.5-14.3-3.5c-2.4-3-2.4-6.6,0.1-9c1.9-1.9,3-1.9,28.3-1.3c29,0.7,42.7-0.2,66.7-4.3c18.9-3.2,30.7-6.3,48.2-12.4
	c7.8-2.7,15.2-5,16.4-5s3.2-0.8,4.5-1.8c3.1-2.4,6.8-3.3,8.9-2.1c1.4,0.7,1.9,0.4,2.3-1.5c0.9-3.6,3.4-5.5,7-5.5
	c4,0,6.6,2.6,6.6,6.8c0,4.6-2.4,6.5-7.7,6.1c-2.7-0.2-4.3,0.1-4.3,0.8c0,2.5-4.2,6.4-7,6.4c-1.5,0-3.4,0.7-4.1,1.5
	c-1.7,2.1-7.8,4.6-23.3,9.9c-23,7.8-49.5,13.4-73.7,15.5C143.4,720.3,119,720.1,103.1,718.6L103.1,718.6z M346.6,711.8
	c-3.5-5-0.4-10.8,5.8-10.8c4.1,0,6.7,2.6,6.7,6.7c0,3.9-2.8,6.3-7.3,6.3C349.1,714,347.7,713.4,346.6,711.8L346.6,711.8z M532,711.8
	c-4.2-4.5-1.2-11.8,4.7-11.8c3.6,0,4.9,0.9,6.2,4.3c1.5,3.9,1.4,4.4-1.4,7.2C538.5,714.6,534.7,714.7,532,711.8L532,711.8z M431,708
	c-2.4-2.4-2.6-5.7-0.4-8.8c2-2.9,8.3-3.1,10.8-0.4c2.2,2.4,2.1,7.5-0.2,9.5C438.7,710.6,433.4,710.4,431,708z M463.7,707.2
	c-2.1-2.3-2.2-7.6-0.2-9.6c3.8-3.8,10.1-2.4,11.8,2.7C477.3,706.5,468,712,463.7,707.2z M398,705c-2.4-2.4-2.6-5.7-0.4-8.8
	c1.2-1.6,2.6-2.2,5.4-2.2s4.3,0.6,5.4,2.2c3.4,4.9,0.7,10.8-5,10.8C401.3,707,399.2,706.2,398,705z M499.7,701.2
	c-0.9-1-1.7-3.5-1.7-5.5c0-6.2,6.9-8.7,11.4-4.1c2.1,2.1,2,7.7-0.3,9.8C506.7,703.5,501.7,703.4,499.7,701.2z M360.6,695.8
	c-3.6-5.1-0.7-10.8,5.4-10.8c2.9,0,4.3,0.6,5.4,2.2c2.1,3,2,7.1-0.3,9.1C368.4,698.8,362.5,698.5,360.6,695.8L360.6,695.8z
	 M568.1,695.4c-2.6-3.3-2.6-6.4,0-9.2c4-4.3,12-1.4,12,4.4c0,3.5-3.7,7.4-7,7.4C571.1,698,569.4,697.1,568.1,695.4z M313.2,696.2
	c-2.3-1.5-3.4-7.3-1.8-9.7c3.5-5.4,11.8-2.8,12.4,3.8c0.2,2.8-0.2,3.9-2,5.2C319.4,697.1,315.3,697.5,313.2,696.2L313.2,696.2z
	 M532.2,690.8c-1.9-1.9-1.5-8.2,0.6-10.1c2.3-2.1,6.1-2.1,8.9-0.1c2.8,2,3,7.4,0.4,9.8C540,692.3,533.9,692.5,532.2,690.8z
	 M439.6,681.8c-3.5-5-0.7-10.8,5.3-10.8c4.6,0,7.1,2.4,7.1,6.7c0,3.9-2.8,6.3-7.3,6.3C442.1,684,440.7,683.4,439.6,681.8z
	 M328.6,681.4c-2.5-2.5-3-6.2-1.2-8.9c1.3-1.9,2.5-2.5,5.5-2.5c4.6,0,7.1,2.4,7.1,6.8C340,682.1,332.3,685.2,328.6,681.4
	L328.6,681.4z M412.1,681.7c-1.3-0.7-2.8-2.5-3.4-4.1c-2-5.9,5.4-10.8,10.9-7.2c3.1,2,3.4,7.6,0.4,10.5
	C417.7,683.3,415.5,683.5,412.1,681.7z M468.6,679.8c-3.5-5-0.4-10.8,5.9-10.8c5.8,0,8.9,7.5,4.7,11.3
	C476.4,682.8,470.5,682.5,468.6,679.8L468.6,679.8z M816.2,677.3c-1.1-1-2.8-4.2-3.7-7.3c-3.8-12.1-15.8-41.3-22.3-54
	c-12.5-24.6-29.3-49.1-46.6-67.7c-4.8-5.1-8.4-9.7-8-10.3c0.3-0.5-0.8-1.5-2.5-2.1c-3.3-1.2-5.5-4.9-4.5-7.8c0.4-1.4-0.1-1.6-3-1.3
	c-5.6,0.7-9.8-4.5-7.3-9.1c1.6-2.9,2.8-3.7,6.4-3.7c3.8,0,6.4,2.7,6.4,6.6c0,2.8,0.2,2.9,3.5,2.6c4-0.5,7.5,1.9,7.5,5
	c0,1.2,0.7,1.8,1.9,1.8c3,0,23.9,23.4,36.2,40.6c18.4,25.6,32.2,52.6,41.7,81.4c6.2,19.1,6.7,21.5,4.8,24.5
	C824.6,679.5,819.3,679.9,816.2,677.3L816.2,677.3z M117.5,676.4c-23.4-1.9-58.8-9.1-61.8-12.6c-2.2-2.5-2.2-5.7-0.1-8.7
	c1.5-2.1,2.2-2.3,7.3-1.8c3.1,0.3,11.9,1.7,19.6,3.1c40,7.5,83,7.5,117.9,0.1c6.6-1.4,13.9-2.8,16.1-3.1s5.4-1.2,7.2-1.9
	c4-1.8,4.9-1.8,7.9,0.2c2.3,1.5,2.5,1.5,2.5-0.3c0-4.2,6.4-6.7,11-4.3c2.7,1.4,3.4,5.5,1.5,9c-1.3,2.5-2.2,3-5.2,3
	c-2,0-4.5-0.7-5.5-1.7c-1.7-1.6-1.8-1.5-1.8,0.5c0,3.2-3.6,6.3-6.9,6c-1.5-0.2-3.5,0.2-4.3,0.9c-2.7,2.2-26.9,7.2-49.8,10.3
	C164.2,676.2,126.4,677.1,117.5,676.4z M279.6,674.8c-2-2.9-2-7.2,0-9.2c2.4-2.4,9-2.1,10.9,0.7c2.1,3,2,5-0.5,8.1
	C287.2,677.8,281.8,678,279.6,674.8L279.6,674.8z M566.2,675.4c-1.6-1.2-2.2-2.6-2.2-5.4s0.6-4.3,2.2-5.4c5.1-3.6,10.8-0.7,10.8,5.4
	c0,4.2-2.6,7-6.5,7C569.4,677,567.4,676.3,566.2,675.4z M377,674c-2.5-2.5-2.6-7.2-0.2-9.3c2.7-2.5,8.7-2.2,10.6,0.6
	c2.2,3.1,1.9,6.3-0.6,8.7C384,676.6,379.6,676.6,377,674z M501,673.3c-5.3-6.7,4-15.3,10-9.3c2.8,2.8,2.7,8.4-0.2,10.4
	C507.3,676.9,503.5,676.4,501,673.3z M602.2,673.7c-2.6-2.8-2.7-4.9-0.6-8.2c3.3-5,12.4-2.4,12.4,3.6
	C614,675.6,606.6,678.4,602.2,673.7L602.2,673.7z M298.6,663.9c-3.2-2.5-3.6-7.7-0.8-10.3c2.4-2.2,7.5-2.1,9.5,0.2
	c2.3,2.5,2.1,7.7-0.3,10.2C304.4,666.6,301.9,666.5,298.6,663.9L298.6,663.9z M530.7,663.2c-2.2-2.4-2.1-7.5,0.2-9.5
	c2.4-2.2,7.5-2.1,9.5,0.2c2.2,2.4,2.1,7.5-0.2,9.5C537.7,665.5,532.7,665.4,530.7,663.2z M346.6,660.8c-3.6-5.1-0.7-10.8,5.4-10.8
	c4.4,0,7,2.6,7,7.2C359,662.6,349.7,665.3,346.6,660.8z M448.5,658.5c-4.5-4.5-2.6-10.2,3.7-11.2c2.9-0.5,4.1-0.1,5.7,1.5
	c3,3,2.8,7.5-0.5,10C453.9,661.6,451.5,661.5,448.5,658.5L448.5,658.5z M422.8,659.3c-0.9-0.2-2.2-1.8-2.9-3.5
	c-1.9-4.6,0.4-8.2,5.5-8.6c4.8-0.4,7.6,1.9,7.6,6.3C433,658.7,429,661,422.8,659.3L422.8,659.3z M474,656c-2.9-2.9-2.6-7.4,0.6-9.9
	c3.3-2.6,6.8-2.6,9.4-0.1c4.3,4.3,1.1,12-5,12C477.3,658,475.1,657.1,474,656z M597.2,654c-4.5-4.2-1.5-12,4.7-12
	c3.2,0,5.7,2.3,6.7,6.2c0.5,2.1,0.1,3.3-1.9,5.3C603.6,656.5,600.1,656.7,597.2,654z M390.6,652.8c-3.6-5.1-0.7-10.8,5.4-10.8
	c2.9,0,4.3,0.6,5.4,2.2c2.1,3,2,7.1-0.3,9.1C398.4,655.8,392.5,655.5,390.6,652.8L390.6,652.8z M250.5,650.5c-2.7-2.7-3-4.6-1.3-7.9
	c1.5-2.9,2.8-3.7,6.1-3.7c5.9,0,8.9,7.3,4.7,11.8C257.3,653.7,253.5,653.6,250.5,650.5z M503,649c-4.1-4.1-1.4-12,4.1-12
	c3.5,0,7.9,3.9,7.9,7c0,2.9-4.4,7-7.5,7C506.1,651,504.1,650.1,503,649z M632.3,648.4c-2.1-2.1-2.4-3.2-1.9-5.8
	c1.1-5.7,6.2-7.4,11-3.6c1.7,1.4,2.6,3,2.6,4.9c0,3.2-3.9,7-7.2,7C635.8,651,633.8,649.8,632.3,648.4L632.3,648.4z M560.2,648.4
	c-4.7-3.3-1.3-12.4,4.6-12.4c2.7,0,7.1,4.2,7.1,6.8c0,1.1-0.9,3.1-2.1,4.5C567.5,650.4,563.6,650.8,560.2,648.4L560.2,648.4z
	 M319.5,646.5c-4.8-4.8-2.2-11.5,4.4-11.5c3.8,0,7.2,3,7.2,6.5c0,3.1-4.1,7.5-7,7.5C322.9,649,320.8,647.9,319.5,646.5z
	 M364.3,642.8c-4.4-4.7-1.7-10.8,4.8-10.8c8.8,0,9.7,11.2,1,12.6C367.2,645.1,366.1,644.7,364.3,642.8z M269.5,641.5
	c-1.4-1.3-2.5-3.4-2.5-4.5c0-2.8,4.3-7,7.2-7c4,0,6.8,2.7,6.8,6.6C281,643.4,274.2,646.3,269.5,641.5L269.5,641.5z M528.7,638.2
	c-2.2-2.4-2.1-7.5,0.2-9.5c2.4-2.2,7.5-2.1,9.5,0.2c2.1,2.3,2.1,7.5,0.1,9.6C536.3,640.6,530.7,640.4,528.7,638.2L528.7,638.2z
	 M430.4,638.2c-2.4-1.6-3.4-5-2.3-7.9c0.6-1.5,1.6-3.1,2.3-3.6c2.1-1.3,7.5-0.8,9.1,0.8c1.9,1.9,2.1,8.5,0.4,10.2
	C438.5,639.1,432.2,639.4,430.4,638.2z M454.2,637.4c-1.5-1.1-2.2-2.6-2.2-4.8c0-4.7,2.1-7,6.4-7c4.4,0,6.9,2.3,6.9,6.3
	C465.3,638,459.3,641,454.2,637.4L454.2,637.4z M402,634c-2.4-2.4-2.6-5.7-0.4-8.8c2-2.9,9-3.2,11.1-0.5c3.4,4.5,0.1,11.3-5.6,11.3
	C405.3,636,403.1,635.1,402,634z M478.5,634.8c-2.7-1.5-3.5-2.8-3.5-5.9c0-3.6,1.9-5.8,5.7-6.5c2.6-0.5,3.7-0.1,5.8,1.9
	c3.2,3.2,3.3,6.1,0.1,9.2C483.9,636.2,481.6,636.6,478.5,634.8L478.5,634.8z M132.5,632.3c-20.1-1.6-46.3-6.5-64.2-11.9
	c-9.9-3-18-6-35.5-13.2c-4.8-2-6.8-6.3-4.7-10.1c2.3-4,8.5-3.4,24.4,2.2c26,9.3,51.5,15.1,80.2,18.2c16.7,1.9,59.6,1.5,63.4-0.6
	c2.5-1.3,7.9-0.3,8.6,1.7c0.4,1.1,1.1,0.6,2.4-1.6c1.6-2.6,2.5-3.1,5.7-3.1c4.5,0,7.2,2.3,7.2,6.3c0,5.6-7.7,8.9-11.6,4.9
	c-1.1-1.1-1.9-1.3-2.1-0.6c-1.2,3.5-3.3,4.9-8,5.1c-2.7,0.1-10.2,0.9-16.8,1.7C170.8,632.7,143.7,633.2,132.5,632.3L132.5,632.3z
	 M338.5,630.5c-4.6-4.6-1.8-11.5,4.7-11.5c3.6,0,6.8,3.2,6.8,6.8c0,3.8-1.9,6-5.7,6.8C341.7,633.1,340.6,632.7,338.5,630.5
	L338.5,630.5z M623.7,629.2c-3.6-4-0.7-12.2,4.4-12.2c3,0,6.7,2.8,7.4,5.6c0.6,2.5-0.8,6.3-2.8,7.7
	C630.5,631.6,625.3,631,623.7,629.2z M293.5,627.5c-4.3-4.3-2.7-10,3.2-11.1c2.6-0.5,3.7-0.1,5.8,1.9c3.1,3.1,3.2,5.5,0.5,9
	C300.3,630.7,296.7,630.8,293.5,627.5L293.5,627.5z M588.3,629c-2.9-1.2-4-5.6-2.2-8.9c1.1-1.9,2.4-2.6,5.3-2.9
	c4.7-0.4,7.6,1.9,7.6,6C599,628.5,594,631.3,588.3,629L588.3,629z M501.6,625.8c-0.9-1.2-1.6-3.2-1.6-4.5c0-5.7,9.2-8.7,12.4-4.1
	c3.6,5.1,0.7,10.8-5.4,10.8C504.1,628,502.7,627.4,501.6,625.8L501.6,625.8z M377.7,625.2c-3.8-4.2-0.8-11.2,4.9-11.2
	c6.3,0,9.4,5.8,5.9,10.8C386.4,627.6,380.1,627.9,377.7,625.2z M554.5,623.5c-3-3-3.1-5.5-0.4-8.9c2.6-3.3,7-3.5,9.9-0.4
	c2.9,3.1,2.6,7.2-0.6,9.7C559.9,626.6,557.5,626.5,554.5,623.5L554.5,623.5z M844.7,623.9c-1-0.6-4.2-5.8-7.1-11.7
	c-21.4-42.6-50.3-80-81.6-105.7c-5.2-4.3-9.9-8.6-10.4-9.6c-0.5-1-1.9-1.9-3.2-1.9c-2.7,0-5.4-3.4-5.4-6.9c0-1.9-0.3-2.2-1.2-1.3
	c-3.3,3.3-10.8-1.1-10.8-6.3c0-3.4,3.3-6.5,6.8-6.5c3.4,0,7.2,3.3,7.2,6.3c0,2,0.4,2.2,4,1.9c4.2-0.4,8,1.7,8,4.5
	c0,0.7,1,1.3,2.3,1.3c3.2,0,25.8,19.2,40.2,34.2c24.2,25.2,42.5,51.9,56.9,83.2c4.8,10.4,5.3,12.2,4.4,14.8
	C853.3,624.6,848.8,626.3,844.7,623.9L844.7,623.9z M223.5,620.5c-2.9-2.9-3-3.7-1-7.5c1.7-3.4,3.7-4.3,7.4-3.4
	c4.1,1,5.2,2.3,5.2,6.4C235,622.7,228.2,625.3,223.5,620.5L223.5,620.5z M657,621c-2.3-2.3-2.6-6.8-0.8-9.3c0.7-0.9,2.7-2,4.4-2.3
	c4.4-0.9,8.8,3.3,7.9,7.4C667.2,622.5,660.8,624.8,657,621z M524.6,615.8c-3.6-5.2-0.7-10.8,5.7-10.8c3.8,0,6.8,3,6.8,7
	C537,617.4,527.7,620.3,524.6,615.8L524.6,615.8z M244,615c-4.1-4.1-1.2-12,4.4-12c3.3,0,7.6,3.7,7.6,6.4
	C256,615.7,248.3,619.3,244,615z M314.1,614.4c-1.1-1.4-2.1-3.4-2.1-4.4c0-3,3.9-7,6.9-7c7,0,9.9,7.7,4.5,11.9
	C319.8,617.7,316.6,617.5,314.1,614.4L314.1,614.4z M354.5,615c-2.4-2.6-2.4-7.9,0-9.6c2.5-1.8,8-1.7,9.9,0.2c2.1,2.1,2,7.7-0.3,9.8
	C361.6,617.6,356.7,617.4,354.5,615L354.5,615z M431.4,610.5c-2-3-1.1-8.1,1.6-9.5c5.4-2.9,11,0.2,11,6.1
	C444,612.9,434.7,615.5,431.4,610.5L431.4,610.5z M451.6,610.8c-3.4-4.9-0.7-10.8,5-10.8c4.1,0,7.4,2.9,7.4,6.5
	C464,612.4,454.9,615.5,451.6,610.8z M412,609c-4.5-4.5-1.4-12,5-12c3.4,0,4.7,1,5.9,4.3c1.4,3.6-0.1,7.5-3.5,8.7
	C415.7,611.4,414.2,611.2,412,609z M471.2,608.8c-4.4-4.7-1.5-11.8,4.8-11.8c5.9,0,9,6.4,5.3,10.9
	C478.5,611.2,473.9,611.6,471.2,608.8L471.2,608.8z M269.5,604.5c-3-3-3.2-6.8-0.5-9.5c4.1-4.1,12-1.2,12,4.5c0,3.1-4.1,7.5-7,7.5
	C272.9,607,270.8,605.9,269.5,604.5z M578.1,604.4c-3.3-4.2-2.7-8,1.6-10.2c3.3-1.7,5.7-1.4,8.1,1.2c2.8,3,2.8,6.8-0.1,9.5
	C584.5,607.8,580.6,607.6,578.1,604.4L578.1,604.4z M610.7,605.2c-2.1-2.3-2.1-7.6,0-9.7c1.1-1.1,3-1.5,5.7-1.3
	c3.4,0.2,4.4,0.8,5.4,3.1c2.4,4.9-0.7,9.7-6.2,9.7C613.7,607,611.6,606.2,610.7,605.2L610.7,605.2z M393,604c-4.1-4.1-0.7-12,5.2-12
	c2.5,0,6.8,4.4,6.8,7c0,2.9-4.4,7-7.5,7C396.1,606,394.1,605.1,393,604z M646,603c-3.9-3.9-1.2-12,4-12c8.2,0,10.9,10.2,3.4,13
	C649.7,605.4,648.2,605.2,646,603z M332.5,601.5c-3-3-3.1-5.5-0.4-8.9c4-5.1,11.9-2.5,11.9,3.9C344,603.4,337.2,606.3,332.5,601.5z
	 M495,601.3c-2.2-2.8-2.1-6.3,0.2-9c1.5-1.8,8.3-1.6,10.2,0.3c2.4,2.4,2,8-0.7,9.9C501.3,604.9,497.5,604.4,495,601.3L495,601.3z
	 M547.1,601.4c-1.1-1.4-2.1-3.2-2.1-3.9s0.9-2.4,2.1-3.9c4.1-5.2,11.9-2.6,11.9,4C559,603.9,551,606.4,547.1,601.4z M373.6,596.8
	c-3.6-5.1-0.7-10.8,5.4-10.8c2.9,0,4.3,0.6,5.4,2.2c3.6,5.1,0.7,10.8-5.4,10.8C376.1,599,374.7,598.4,373.6,596.8z M292.1,594.4
	c-1.1-1.4-2.1-3.5-2.1-4.5c0-2.7,4.4-6.8,7.3-6.8c3.4,0,6.7,3.5,6.7,7C304,596.5,296.1,599.4,292.1,594.4z M150,592.9
	c-32.2-3-62.5-10.2-90.1-21.5C39.2,563,13,548.8,10.9,544.8c-2.1-3.9,1.1-9.8,5.4-9.8c1.2,0,8.3,3.1,15.7,6.9
	c26,13.3,51.8,23.2,76.7,29.4c18.3,4.6,27.8,6,63.8,9.8c0.6,0.1,2.4-0.2,4.2-0.6c2.7-0.6,3.6-0.3,5.6,1.9l2.4,2.6l1.1-2.5
	c0.9-2,1.9-2.5,5-2.5c4.6,0,7.2,2.4,7.2,6.7c0,1.7-0.8,3.8-1.8,4.7c-2.5,2.2-7.5,2.1-9.6-0.2c-1.7-1.9-1.8-1.8-4.2,0.6
	c-2,2-3.1,2.4-5.7,1.9c-1.8-0.3-3.6-0.6-4.2-0.6C163.3,593.7,157.9,593.7,150,592.9z M517.2,591.7c-4.3-4.6-1.4-11.7,4.8-11.7
	c7.5,0,9.4,10.4,2.4,13C520.7,594.5,519.6,594.2,517.2,591.7L517.2,591.7z M202.1,588.4c-2.5-3.1-2.6-5.2-0.5-8.1
	c1.1-1.6,2.6-2.2,5.3-2.2c4.6,0,7.1,2.4,7.1,6.7C214,590.9,206,593.4,202.1,588.4z M358.2,588.7c-3-3.2-2.8-7.1,0.5-9.6
	c3.4-2.7,6.8-2.6,9.3,0.1c2,2.2,2.7,6.3,1.3,8.4c-1.1,1.6-4.8,3.4-7,3.4C361.2,591,359.4,590,358.2,588.7z M679.2,586.7
	c-4.3-4.6-1.6-10.7,4.7-10.7c6.5,0,9.4,6.1,5.1,10.8C686.3,589.7,681.9,589.6,679.2,586.7z M223.5,585.5c-1.4-1.4-2.5-3.4-2.5-4.5
	c0-2.8,4.3-7,7.3-7c3.1,0,6.7,3.9,6.7,7.3c0,3.4-3.2,6.7-6.5,6.7C227.1,588,224.8,586.9,223.5,585.5L223.5,585.5z M314.3,586
	c-2.4-1-4.3-3.9-4.3-6.8c0-2.7,4.2-6.2,7.3-6.2c6,0,8.9,7.6,4.4,11.8C319.2,587.2,317.8,587.4,314.3,586z M570.1,585.7
	c-6.2-3.2-4-11.9,3.2-12.5c2.8-0.2,3.9,0.2,5.2,2c2.3,3.2,2,7.1-0.7,9.7C575,587.3,573.5,587.5,570.1,585.7z M422.5,583.6
	c-1.6-1.6-2.8-2.1-3.7-1.5c-2.2,1.4-6.6,1-8.4-0.9c-1-1-2.8-1.6-4.1-1.4s-3.5-0.4-4.8-1.3c-1.3-0.9-3.8-1.6-5.5-1.6
	c-2,0-3.9-0.9-5.4-2.5c-1.3-1.4-3.4-2.5-4.9-2.5c-1.5,0-3.3-1-4.5-2.5c-1.3-1.7-3-2.5-4.9-2.5c-3,0-5.4-2-6.6-5.3
	c-0.4-1-1.6-1.8-3.1-1.8c-2.9,0-5.6-2.4-5.6-5.1c0-1.4-0.7-1.9-2.8-1.9c-3.1,0-7.2-3.6-7.2-6.3c0-1.1-0.8-1.7-2.3-1.7
	c-3,0-5.7-2.9-5.7-6.3c0-2-0.5-2.7-2-2.7c-2.7,0-6-3.5-6-6.3c0-1.5-0.9-2.7-2.5-3.5c-1.4-0.6-2.8-2.4-3.2-3.9c-0.4-1.5-2-4-3.5-5.4
	c-1.6-1.5-2.8-3.7-2.8-4.9s-1-3.3-2.1-4.5s-2.1-3.5-2.1-4.9s-0.9-3.6-1.9-4.6c-1.3-1.3-1.9-3-1.7-5.3c0.2-2.2-0.4-4.1-1.5-5.4
	c-1.3-1.4-1.7-3-1.4-5.3c0.3-2.3-0.1-3.8-1.4-5.2c-2.1-2.2-2.4-6.6-0.7-8.4c0.9-0.9,0.8-1.6-0.5-3c-2-2.3-2.1-5.2-0.3-7.7
	c1.2-1.7,1.2-2.2-0.5-4.3c-2.1-2.7-2.5-6.2-0.7-7.9c0.9-0.9,0.9-1.8,0-3.7c-1.7-3.7-1.5-5.8,1-8.9c1.6-2,1.8-3,1-3.8
	c-1.7-1.7-1.3-6.2,0.7-8.1c1.2-1.1,1.7-2.6,1.4-4.5c-0.2-1.6,0.2-4,0.9-5.3s1.2-3.6,1-5.1c-0.2-1.8,0.6-3.6,2.3-5.3
	c1.6-1.6,2.6-3.7,2.6-5.5c0-1.7,0.8-3.7,2-4.7c1.2-1,2-2.9,2-4.8c0-3.1,2.5-6.4,4.8-6.4c0.6,0,1.2-1.1,1.2-2.5
	c0-2.5,3.9-7.5,5.9-7.5c0.5,0,1.1-1.5,1.3-3.2c0.2-2.4,1.2-3.8,3.5-5.3c1.8-1.1,3.2-2.7,3.3-3.5c0.1-3,3.1-6,6.1-6
	c2.3,0,2.9-0.4,2.9-2c0-2.4,4.2-7,6.5-7c0.9,0,2.7-1.4,4.1-3c1.4-1.6,3.1-3,3.9-3s1.9-1,2.6-2.3c1.5-2.9,2.8-3.7,5.8-3.7
	c1.3,0,3.5-1.2,4.8-2.6c1.7-1.8,3.1-2.5,4.8-2.2c1.8,0.3,2.9-0.3,4.6-2.5c1.9-2.6,2.7-2.9,5.9-2.5c2.9,0.4,4.1,0.1,5.5-1.5
	c1.3-1.5,2.6-1.9,5.4-1.5c2.8,0.3,4.3-0.1,6.5-1.9c3-2.5,5.2-2.9,7.6-1.4c1,0.7,2,0.4,3.3-1c2.1-2.3,7-2.6,9-0.5
	c1.3,1.3,1.7,1.2,3.2-0.5c2.1-2.3,6.7-2.6,8.5-0.4c0.8,1,1.6,1.2,2.4,0.6c1.6-1.3,16.6-1.1,19.1,0.2c1.1,0.6,3.5,1,5.3,0.8
	s4,0.3,4.8,1s3.2,1.2,5.3,1c2.9-0.2,4.2,0.2,5.7,2c1.4,1.7,2.7,2.2,5.1,2c2.4-0.2,3.9,0.3,5.8,2.3c1.7,1.7,3.6,2.6,5.9,2.6
	c2.4,0,3.9,0.7,5.3,2.5c1.3,1.7,3,2.5,5,2.5c3.1,0,7.2,3.8,7.2,6.5c0,0.8,0.8,1.1,2,0.7c2.4-0.6,6.6,1.9,7.5,4.6
	c0.3,1.1,1.8,2.2,3.1,2.6c1.4,0.3,3.3,1.9,4.2,3.5c1,1.7,2.8,3.1,4.3,3.4c2,0.4,3,1.5,3.9,4.1c0.6,1.9,1.7,3.5,2.4,3.5
	c1.9,0,4.6,3.4,4.6,5.8c0,1.3,0.6,2.2,1.5,2.2c2.4,0,5.5,3.8,5.5,6.8c0,2,0.9,3.5,3.1,5.1c2.7,2,3,2.8,2.6,5.6
	c-0.5,2.9-0.2,3.4,1.9,3.9c2.7,0.7,4.8,4.8,3.9,7.6c-0.4,1.2,0.3,2.3,2.1,3.5c2.3,1.5,2.6,2.3,2.2,5.9c-0.3,3.3,0.1,4.8,1.9,7
	c2.5,3,2.9,5.3,1.4,7.6c-0.6,0.9-0.4,1.9,0.6,2.9c0.9,0.9,1.4,2.9,1.2,5.3c-0.2,2.1,0.3,4.4,0.9,5.1c1.4,1.4,1.6,6.7,0.3,8.8
	c-0.6,0.9-0.5,1.9,0.1,2.8c0.6,0.7,0.8,3.1,0.5,5.4c-0.3,2.2-0.1,5.4,0.5,7.1c0.9,2.5,0.7,3.5-1.1,5.9c-1.8,2.4-2,3.3-1,5
	c1.2,2.2-0.4,7.9-2.2,7.9c-0.5,0-0.6,2-0.2,4.5c0.5,3.5,0.2,4.9-1.1,6.4c-1.2,1.3-1.5,2.8-1.1,4.8c0.7,3.2-2.4,8.3-5.1,8.3
	c-1.2,0-1.2,0.4-0.3,2.1c1.4,2.7-0.4,7.6-3.2,8.4c-1.3,0.4-1.9,1.5-1.9,3.4c0,1.6-1,3.7-2.5,5.1c-1.4,1.3-2.5,3.1-2.5,4.1
	c0,3-1.2,5-3.5,5.9c-1.4,0.5-2.5,2-2.9,4c-0.5,2.3-1.4,3.5-3.6,4.3c-2,0.8-3,1.8-3,3.3c0,2.7-3,5.4-5.8,5.4c-1.5,0-2.4,0.8-2.8,2.5
	c-0.8,3-4,5.5-7.1,5.5c-1.6,0-2.3,0.6-2.3,2c0,2.8-3.5,6-6.5,6c-1.5,0-2.5,0.6-2.5,1.4c0,2.6-5.1,5.7-8.2,5
	c-2.1-0.5-2.8-0.2-2.8,0.8c0,2.3-3.4,4.7-6.8,4.7c-1.8,0-4,0.8-5.2,2c-1.2,1.2-3.3,2-5.3,2c-2.2,0-3.7,0.7-4.5,2
	c-0.9,1.4-2.3,2-5.1,2c-2.1,0-5.3,0.7-7,1.6c-1.9,1-4.3,1.3-6,1c-1.9-0.4-3.2-0.1-4.1,0.9c-1.5,1.8-6.1,2-7.9,0.3c-1-1-1.6-1-3.2,0
	c-2.7,1.7-7.5,1.5-9-0.3c-1.1-1.4-1.4-1.4-3,0c-2,1.8-7.1,2-8.8,0.4c-0.9-0.9-1.8-0.9-3.7,0C426.8,586.5,425.2,586.3,422.5,583.6
	L422.5,583.6z M438.5,573c1.7,0,3.6,0.5,4.2,1.1c0.8,0.8,1.7,0.8,3.1,0c2.6-1.4,8.9-1.4,9.7,0c0.4,0.7,1.3,0.5,2.5-0.6
	c1.3-1.2,2.8-1.5,5.3-1c2.5,0.5,3.8,0.2,4.7-0.9c0.9-1,2.6-1.5,5.1-1.3c2.1,0.2,4.4-0.3,5-0.9c0.7-0.7,2.7-1.2,4.6-1.2
	c2.3,0,4-0.7,5.1-2.1c1.1-1.4,3-2.2,5.2-2.3c2-0.1,4-0.8,4.7-1.9c0.9-1.2,2.7-1.8,5.3-1.8c3.3,0,4.1-0.4,4.9-2.4
	c0.9-2.5,2.9-3.6,6.2-3.6c1.1,0,2.3-1,2.9-2.4c1-2.7,3.8-4.6,7-4.6c1.5,0,2.1-0.6,2.1-2.4c0-2.7,1.4-4.1,5.1-5
	c1.6-0.4,3.1-1.7,3.8-3.5c0.7-1.6,2.3-3.4,3.6-4s2.4-1.9,2.4-2.8c0-2.1,3.8-6.3,5.7-6.3c0.7,0,1.3-1.1,1.3-2.3c0-1.3,0.9-3.2,2-4.2
	s2-2.7,2-3.7s1.3-3.3,3-4.9s3-4.1,3-5.4c0-1.3,1.1-3.2,2.5-4.3c1.9-1.5,2.5-2.9,2.5-6.1c0-2.9,0.5-4.4,1.9-5.3
	c1.5-0.9,1.7-1.7,1-3.5c-1.1-2.8,0.3-6.8,2.6-8.1c1.1-0.6,1.3-1.2,0.6-1.6c-1.6-1-1.4-6.8,0.3-9.1c0.9-1.2,1.2-3.2,0.9-5.2
	c-0.3-1.9,0-3.9,0.7-4.8c1-1.2,1-1.8,0-3c-0.8-1-1-3-0.6-6c0.3-2.5,0.2-5.6-0.4-7.1c-0.6-1.6-0.6-3.2-0.1-4.2
	c0.6-1.1,0.3-2.4-1.1-4.3c-1.7-2.3-1.8-3.2-1-5.8c0.8-2.4,0.7-3.3-0.5-4.3c-1.1-0.9-1.4-2.4-1-5.2c0.4-3.2,0.1-4.3-1.5-5.6
	c-1.3-1-2.1-2.9-2.2-5.1c-0.1-2.3-0.9-4.1-2.4-5.3c-1.5-1.2-2.3-2.9-2.3-5.1c0-2.4-0.7-3.8-3-5.5c-2.1-1.6-3-3.1-3-5.1
	c0-1.9-0.8-3.4-2.4-4.4c-1.3-0.9-2.7-2.9-3.1-4.5c-0.4-2-1.4-3.1-3-3.5c-1.5-0.4-2.7-1.7-3.4-3.9c-0.6-1.8-2.1-3.7-3.3-4.3
	s-2.7-2-3.2-3.2c-0.5-1.2-2.2-2.4-3.8-2.7c-2-0.4-3.2-1.5-4-3.5c-0.7-1.9-2.1-3.2-4.2-3.8c-2.2-0.6-3.4-1.8-4.1-4.1
	c-0.6-1.8-1.3-3-1.7-2.6c-1.3,1.3-6.5-0.8-7.8-3.1c-1-1.8-2.1-2.5-4.6-2.5c-2.2,0-3.8-0.7-5.1-2.4c-1.4-1.8-2.6-2.3-5-1.9
	c-2.4,0.3-3.7-0.1-5.5-1.9c-1.6-1.6-3.6-2.4-6.1-2.4c-2.1,0-4.2-0.7-4.6-1.5c-0.6-0.9-2.3-1.3-5-1.1c-2.3,0.2-4.6-0.1-5.3-0.7
	c-1.6-1.3-10.4-1.7-14-0.7c-1.9,0.5-3.5,0.3-5.1-0.7c-1.5-1-2.8-1.2-3.7-0.6c-2.2,1.4-6.5,1.1-7.9-0.6c-1.1-1.3-1.5-1.2-3.8,0.5
	c-2.7,2.2-6.7,2.6-7.8,0.9c-0.4-0.7-1.5-0.3-3,1.1c-1.9,1.7-3.1,2.1-5.9,1.6c-2.9-0.5-4-0.1-6.1,2c-2,2-3.2,2.4-5.5,2
	c-2.2-0.4-3.6-0.1-5.1,1.4c-1.2,1.1-3.2,2-4.4,2c-1.2,0-3.4,1.1-4.8,2.5s-3.5,2.5-4.8,2.5c-1.3,0-3.4,1.1-4.7,2.5
	c-1.3,1.4-2.8,2.5-3.3,2.5s-2.3,1.4-3.8,3c-1.5,1.6-3.7,3-4.9,3s-2.1,0.5-2.1,1c0,1.9-4,5-6.5,5c-1.7,0-2.5,0.5-2.5,1.8
	c0,2.7-2.9,6.2-5.1,6.2c-1.4,0-1.9,0.7-1.9,2.5c0,2.8-3.2,6.5-5.5,6.5c-1,0-1.5,1-1.5,2.8c0,3.1-1.5,5.4-4.4,6.9
	c-1,0.5-2,2.3-2.2,3.9s-1.2,3.5-2.3,4.2c-1.4,0.9-2,2.5-2,4.6c0,2-0.8,3.9-2,5c-1.1,1-2,3-2,4.5c0,1.5-0.6,3.5-1.4,4.6
	c-0.8,1.1-1.2,3-0.9,4.3c0.4,1.5-0.2,3.3-1.4,5c-1.3,1.8-1.8,3.7-1.5,5.8c0.3,2.3-0.1,3.7-1.6,5.2c-1.8,1.8-1.9,2.4-0.9,4.7
	c0.9,2,0.9,3.3,0,5.6c-0.8,2-0.8,3.7-0.2,4.9c1.3,2.4,1.2,6.3-0.2,7.7c-0.9,0.9-0.7,1.8,0.5,3.7c1.9,2.9,2.1,6.7,0.6,8.3
	c-0.8,0.8-0.6,1.8,0.6,3.7c1,1.5,1.5,3.7,1.2,5.2c-0.3,1.8,0.1,3.3,1.5,4.6c1.5,1.5,1.9,2.9,1.5,5.1c-0.4,2.2,0.1,3.9,1.4,5.6
	c1.1,1.3,1.8,3.4,1.7,4.6s0.5,2.9,1.5,3.9c1,1,1.7,2.8,1.7,4.1c0,1.3,1.1,3.5,2.5,4.9s2.5,3.5,2.5,4.8c0,1.4,0.9,2.7,2.3,3.3
	c1.2,0.5,2.7,2.3,3.3,4c0.5,1.7,2.2,4.2,3.8,5.7s2.8,3.8,2.8,5.1c0,1.9,0.7,2.6,3,3c2.3,0.5,3.2,1.3,3.6,3.5
	c0.5,2.3,1.4,3.1,4.5,4.1c3.2,0.9,4.1,1.8,4.5,4.1c0.5,2.4,1.1,2.9,3.4,2.9c3,0,5.5,1.9,6.4,5c0.4,1.3,1.5,2,3.1,2
	c1.4,0,3.4,1.1,4.6,2.5c1.3,1.5,3.2,2.5,4.8,2.5c1.5,0,3.6,1.1,5,2.5c1.4,1.5,3.5,2.5,5.1,2.5c1.5,0,3,0.5,3.4,1
	c0.3,0.5,2.1,1,3.9,1c2,0,4,0.8,5.1,2c1.2,1.3,3.1,2,5.5,2c2.4,0,4.3,0.7,5.5,2c1.2,1.4,2.2,1.7,2.9,1c1.5-1.5,5.9-1.3,8.2,0.4
	c1.2,0.9,2.3,1.1,2.9,0.5C435,573.4,436.8,573,438.5,573z M422.5,552.4c-16.6-4-28.2-9.2-40.2-18.3c-21.9-16.5-35.7-38-41.5-64.6
	c-2.2-10-1.6-35.2,1-45.8c4.7-19.2,14.1-35.5,28.7-50.1c20.7-20.7,44.5-30.5,74.5-30.6c27.9,0,51.7,9.4,71.6,28.3
	c20.6,19.6,30.7,39.8,33.4,66.8c3.3,32.5-7.5,62.5-30.6,85.5c-14.7,14.6-32,24.2-51.4,28.5C457.4,554.4,431.8,554.6,422.5,552.4z
	 M465.5,538c17.8-4.3,31.9-12.5,45.1-26.3c14.6-15.2,22.9-32.5,25.4-52.7c1.3-10.7,0.7-19.9-2-31.8c-3.9-17-11.3-30-24.8-43.3
	c-13.2-13.1-29.3-22-45.1-25.1c-10.6-2.1-31.9-1.6-42.2,0.9c-28.3,7-54.4,31.1-63.7,58.8c-9,26.9-5.4,57,9.6,79.6
	c13.7,20.7,36.2,36.1,59.4,40.6C435.7,540.6,456.9,540.1,465.5,538z M435.5,520.4c-1.1-0.2-4.5-0.9-7.5-1.5
	c-9.8-1.9-22.8-9-31.5-17.1c-15.5-14.4-22.3-29.1-23.2-49.8c-0.6-14.3,1.1-23.4,6.6-34.5c13.5-27.1,38.7-41.8,69-40.2
	c18.6,0.9,33.3,7.3,45.8,19.7c16,15.9,23.6,35.6,21.9,57.1c-0.8,10.6-2.3,16.1-6.7,25.4c-9.7,20.5-30.1,36.2-51.9,40.1
	C450.9,520.9,439.9,521.2,435.5,520.4L435.5,520.4z M464.5,503.2c8.4-3.1,18.9-10.5,24.8-17.6c26.9-32.3,10.9-82.2-29.8-92.6
	c-25-6.4-49.3,3.3-63.7,25.5c-5.8,8.9-8.3,18-8.3,30c0,16.6,5.1,29.4,16.4,40.6c7.5,7.5,13.7,11.4,23.1,14.7c5.7,2,8,2.2,19,1.9
	C455.8,505.5,459.8,504.9,464.5,503.2L464.5,503.2z M434,481.5c-9.3-3-19.5-13.4-22-22.3c-1.5-5.4-1.3-17.2,0.5-22.3
	c2.3-6.7,9.3-14.9,15.6-18.4c5.1-2.8,6.1-3,16.4-3c9.6,0,11.6,0.3,15.8,2.4c6.2,3,12,9.1,15.5,16.1c2.4,4.8,2.7,6.7,2.7,15
	c0,8-0.4,10.3-2.5,14.5c-3.1,6.4-9.4,12.6-16.2,16.1C453.3,483,441.2,483.9,434,481.5L434,481.5z M452.5,467.1
	c4.7-2.2,9.9-7.4,11.4-11.4c3.5-9.3-2.1-22.2-11.3-25.6c-4-1.5-13.3-1.3-16.5,0.4c-3.7,1.9-8.9,7.5-10.1,10.9
	c-0.6,1.5-1.1,4.8-1.1,7.3C425,463.1,439.7,473,452.5,467.1L452.5,467.1z M600,584.7c-1.4-0.7-2.9-2.5-3.4-4
	c-2.1-5.9,6.8-11.4,11.5-7.1c2.9,2.6,2.5,7.8-0.7,10.3C604.3,586.3,603.4,586.4,600,584.7L600,584.7z M533.7,581.2
	c-2.2-2.4-2.1-7.5,0.2-9.5c2.7-2.5,8.7-2.2,10.6,0.6c2.1,3,2,6.4-0.4,8.8C541.4,583.6,535.9,583.6,533.7,581.2L533.7,581.2z
	 M630,581c-4.4-4.4-1.4-12,4.8-12c3.6,0,7.6,4.5,6.8,7.8C640.2,582.5,633.8,584.8,630,581z M249.7,579.2c-2.2-2.5-2.1-7.5,0.2-9.6
	c3-2.7,9.1-1.8,11,1.6c1.3,2.4,1.3,3-0.2,6.3c-1.5,3.2-2.1,3.6-5.6,3.6C252.7,581,250.7,580.3,249.7,579.2z M342.5,578.5
	c-4.6-4.6-2.1-11.5,4.1-11.5c7,0,10.1,7.8,4.8,11.9C347.9,581.6,345.5,581.5,342.5,578.5z M274,573c-4.1-4.1-0.8-12,4.9-12
	c2.7,0,7.1,4.2,7.1,6.8C286,573.7,278.1,577.1,274,573z M666.3,571.5c-2.9-2.1-3.1-8.4-0.4-10.8c2.5-2.3,7.5-2.1,9.7,0.4
	c2.2,2.4,2.4,7.5,0.4,9.5C673.6,572.8,668.8,573.3,666.3,571.5z M547.6,568.8c-3.7-5.2-0.7-10.8,5.7-10.8c4,0,6.7,2.7,6.7,6.7
	C560,570.4,550.8,573.4,547.6,568.8L547.6,568.8z M295.5,565.5c-3-3-3.2-6.8-0.5-9.5c4.1-4.1,12-1.2,12,4.5c0,3.1-4.1,7.5-7,7.5
	C298.9,568,296.8,566.9,295.5,565.5z M328.6,565.8c-2.1-3-2-7.1,0.3-9.1c2.7-2.5,8.7-2.2,10.6,0.6c3.6,5.1,0.7,10.8-5.4,10.8
	C331.1,568,329.7,567.4,328.6,565.8L328.6,565.8z M586,565c-4.1-4.1-1.2-12,4.4-12c3.3,0,7.6,3.7,7.6,6.4
	C598,565.7,590.3,569.3,586,565z M866.2,563.3c-0.7-0.3-3.1-3.3-5.4-6.7c-6.8-10.1-19.6-26.4-30.5-38.8
	c-20.9-23.7-44.3-43.2-70.8-58.9c-5-2.9-9.4-5.9-9.8-6.6c-0.4-0.7-1.9-1.3-3.2-1.3c-3,0-6.5-3.3-6.5-6c0-1.7-0.3-1.9-1.9-1
	c-3.4,1.8-7.8,1.2-9.5-1.2c-3.8-5.5-0.6-11.1,6.1-10.6c3.2,0.3,4.1,0.9,5.4,3.5c1.2,2.3,2,2.9,3,2.3c2.7-1.7,6.7-1,8.7,1.6
	c1.1,1.4,3,2.5,4.2,2.5c2.8,0,22.2,11.5,35,20.6c32.9,23.5,62.4,54.6,81.3,85.6c4.5,7.4,4.8,10.9,1.1,13.7
	C870.8,564,868.8,564.4,866.2,563.3L866.2,563.3z M614.9,561.2c-4.7-3.8-1.6-12.2,4.4-12.2c3.8,0,6.6,2.8,6.6,6.6
	C626,562,619.8,565.1,614.9,561.2z M171.3,555.8c-1.2-0.6-2.5-1.9-2.8-3c-0.6-1.9-0.7-1.9-3,0.3c-1.9,1.8-3,2.1-6.2,1.5
	c-2.1-0.4-5.1-0.7-6.7-0.6c-7.8,0-42.1-9-62.5-16.5c-21.9-8.1-50.8-23.9-72.4-39.6C1,485.5-1.2,482.6,2.6,477.2
	c2.6-3.7,7.6-3,14.3,2.1c37.4,28.6,88.6,52.1,130.2,59.8c3.6,0.7,7.1,1.7,7.8,2.3s3.2,0.9,5.5,0.8c3.6-0.2,4.4,0.1,5.6,2.3l1.4,2.6
	l2.1-2c4.5-4.3,11.5-1.5,11.5,4.6c0,3.5-0.8,4.7-3.7,6.3C174.7,557.2,174.2,557.2,171.3,555.8L171.3,555.8z M186.3,555.5
	c-2.9-2.1-3.1-8.4-0.4-10.8c2.4-2.2,7.5-2.1,9.5,0.2c2,2.2,2.2,7.1,0.4,9.5C193.9,556.8,188.9,557.4,186.3,555.5L186.3,555.5z
	 M206.7,554.2c-2.2-2.4-2.1-7.5,0.2-9.5c1.9-1.7,6.8-2.2,8.8-0.9c1.5,1,3.4,4.7,3.4,6.7C219,555.2,210,557.9,206.7,554.2
	L206.7,554.2z M317.7,553.2c-2.2-2.4-2.1-7.5,0.2-9.5c1.9-1.7,6.8-2.2,8.8-0.9c2.3,1.5,3.4,5,2.4,7.6
	C327.3,555,320.7,556.6,317.7,553.2L317.7,553.2z M561.6,552.8c-3.6-5.1-0.7-10.8,5.4-10.8c4.3,0,7,2.6,7,6.7
	C574,554.4,564.8,557.4,561.6,552.8L561.6,552.8z M695.5,552.5c-3-3-3.1-5.5-0.4-8.9c4-5.1,11.9-2.2,11.9,4.3c0,3.5-3.4,7-6.7,7
	C699,555,696.8,553.9,695.5,552.5L695.5,552.5z M234.5,551.5c-2.8-2.8-3.1-6.1-0.9-9.3c3.3-4.8,12.4-1.5,12.4,4.5
	c0,2.9-4.2,7.3-7,7.3C237.8,554,235.8,552.9,234.5,551.5L234.5,551.5z M646.6,551.4c-1.9-1.9-2.1-8.5-0.4-10.2s8.4-1.5,10.2,0.4
	c2.1,2.1,2,7.7-0.3,9.8C653.9,553.4,648.6,553.5,646.6,551.4L646.6,551.4z M258.7,548.2c-2.2-2.4-2.1-7.5,0.2-9.5
	c1.9-1.7,6.8-2.2,8.8-0.9c2,1.3,3.5,5.3,2.9,7.3C268.9,550,262,551.8,258.7,548.2L258.7,548.2z M280.7,544.2
	c-2.2-2.5-2.2-7.5,0.1-9.6c1-0.9,3.5-1.7,5.5-1.7c3.2,0,3.9,0.4,5.4,3.5c1.6,3.4,1.6,3.6-0.4,6.3C288.7,546.2,283.2,547,280.7,544.2
	L280.7,544.2z M599.7,544.2c-2-2.2-2.2-7.1-0.3-9.7c1.7-2.3,8-2.6,10.1-0.4c4.4,4.5,1.4,12-4.9,12
	C602.7,546,600.6,545.2,599.7,544.2L599.7,544.2z M306.1,539.4c-1.6-2-2-3.5-1.6-5.3c1-4,2.4-5,7.1-5c4.8,0,6.4,1.7,6.4,6.8
	c0,3.5-1.7,5.1-6.3,5.8C308.8,542.1,308,541.8,306.1,539.4L306.1,539.4z M679.6,538.4c-2.1-2.1-2-7.7,0.3-9.8
	c1.9-1.7,6.8-2.2,8.8-0.9c3.7,2.5,3.9,9.4,0.4,11.3C686.2,540.5,681.3,540.2,679.6,538.4L679.6,538.4z M574.1,536.4
	c-2.5-3.1-2.6-5.2-0.5-8.1c1.1-1.6,2.6-2.2,5.3-2.2c4.6,0,7.1,2.4,7.1,6.8C586,538.8,577.9,541.3,574.1,536.4L574.1,536.4z
	 M629.2,534.4c-1.6-1.2-2.2-2.6-2.2-5.4s0.6-4.3,2.2-5.4c4.8-3.4,10.8-0.4,10.8,5.4S634,537.8,629.2,534.4L629.2,534.4z
	 M298.1,525.1c-4.6-4.6-1.6-12.1,5-12.1c5.1,0,8.5,7.9,4.8,11.5C305.3,527.2,300.4,527.4,298.1,525.1z M222.7,522
	c-3.3-2.6-3.6-7.1-0.7-10c6-6,15.7,2.4,10.3,8.8C229.6,524,225.9,524.5,222.7,522L222.7,522z M247,522c-2.5-2.5-2.6-7.2-0.2-9.3
	c2.7-2.5,8.7-2.2,10.6,0.6c3.4,4.8,0.4,10.8-5.4,10.8C250.3,524,248.1,523.1,247,522z M658,522c-4.1-4.1-1-12,4.8-12
	c3.3,0,4.5,0.8,6.1,3.7c1.7,3.3,1.4,5.7-1.2,8.1C664.8,524.5,660.6,524.6,658,522z M195.1,521.1c-2.7-2.7-2.8-8.2-0.3-10.4
	c2.9-2.6,7.7-2.1,10.1,1c2.5,3.2,2.6,5.5,0.3,8.3C202.6,523.1,197.7,523.7,195.1,521.1L195.1,521.1z M269.1,520.4
	c-2.6-3.3-2.2-6.9,1.1-9.6c4.4-3.7,10.8-0.7,10.8,5.1c0,4-1.9,6.1-6.1,6.8C271.8,523.1,271,522.8,269.1,520.4L269.1,520.4z
	 M584.7,519.2c-2.2-2.4-2.1-7.5,0.2-9.5c1.9-1.7,6.8-2.2,8.8-0.9c2,1.3,3.5,5.3,2.9,7.3C594.9,521,588,522.8,584.7,519.2z M611,519
	c-4.3-4.3-1-11,5.3-11c2,0,4,0.8,5,1.8c2.2,2.4,2.1,7.5-0.2,9.5C618.7,521.6,613.4,521.4,611,519z M174.2,518.4
	c-2.4-1.7-3-6.2-1.2-9.5c0.8-1.5,2.1-1.9,5.5-1.9c3.9,0,4.6,0.4,6,2.9C188,516.7,180.6,522.9,174.2,518.4L174.2,518.4z M158.6,515.9
	c-1.4-1.1-2.6-2.8-2.6-3.7c0-1.4-0.2-1.4-1.8,0.1c-2.3,2.1-8.5,2.2-10.2,0.2c-0.7-0.8-2.7-1.5-4.5-1.5c-4.2,0-17.2-4.6-34.5-12.1
	c-34.8-15.3-65.2-36-91.8-62.6C3,425.9,1,423.4,1,420.9c0-5.1,1.6-6.9,6.2-6.9c3.8,0,4.8,0.7,15.4,10.9C56,457,94.6,481.5,133,495
	c5.2,1.8,10.2,3.9,11.1,4.7c0.9,0.7,3,1.3,4.8,1.3c3.1,0,7.2,2.9,7.2,5.1c0,0.6,1,0.4,2.2-0.5c2.9-2,7.2-2,9.2,0
	c3.8,3.8,2.7,9.7-2.1,11.5C162,518.3,161.6,518.3,158.6,515.9L158.6,515.9z M707.3,516.5c-2.5-1.8-3.1-7-1-9.7
	c3.2-4,9.7-2.8,11.7,2.2c1.2,2.8,1.1,3.4-0.7,5.8C714.9,518,710.5,518.8,707.3,516.5z M290,506.3c-1.5-1.9-1.9-3.5-1.5-5.2
	c1-4,2.4-5,7.1-5c4.9,0,6.4,1.7,6.4,6.9C302,508.9,293.9,511.2,290,506.3L290,506.3z M637.7,507.2c-2.2-2.4-2.1-7.5,0.2-9.5
	c2.7-2.5,8.7-2.2,10.6,0.6c2.1,3,2,5-0.5,8.1C645.4,509.6,640.2,510,637.7,507.2L637.7,507.2z M863.5,493.3
	c-21-22.1-43.5-41-65.8-55c-11.3-7.1-31.9-17.8-41.2-21.4c-3.3-1.3-6.9-3.1-8.1-4.2c-1.1-1-3.4-1.8-5.1-1.8c-3,0-6.3-2.6-6.3-4.8
	c0-1.4-1.7-1.5-2.5-0.2c-0.3,0.5-2.4,1-4.5,1c-2.9,0-4.3-0.6-5.4-2.2c-3.7-5.2-0.2-11.1,6.3-10.6c3,0.3,4,0.9,5.3,3.6
	c1.4,2.8,1.8,3,2.9,1.8c1.7-2,6.9-1.9,9.1,0.1c1,0.9,3.3,1.7,5.1,1.8s10,3.3,18.2,7.1c42.8,19.7,78.1,45.9,106.9,79.3
	c6.8,7.9,8.1,9.9,8.1,12.9c0,4.1-2.3,6.3-6.9,6.3C876.9,507,874.7,505.1,863.5,493.3L863.5,493.3z M689.5,503.5
	c-4.6-4.6-2-10.5,4.5-10.5c4.6,0,7,2.1,7,6.1C701,505.4,694,508.1,689.5,503.5L689.5,503.5z M590.6,501.8
	c-3.6-5.1-0.7-10.8,5.4-10.8c2.9,0,4.3,0.6,5.4,2.2c2.1,3,2,7.1-0.3,9.1C598.4,504.8,592.5,504.5,590.6,501.8z M261.6,497.8
	c-2.1-3-2-7.1,0.3-9.1c2.7-2.5,8.7-2.2,10.6,0.6c2.1,3,2,5-0.5,8.1C269.2,500.8,263.8,501,261.6,497.8z M239.1,495.4
	c-2.4-3-2.5-3.7-0.9-6.7c1.5-2.9,2.8-3.7,6.4-3.7c3.8,0,6.4,2.7,6.4,6.7C251,497.9,243,500.4,239.1,495.4z M618.6,494.8
	c-3.6-5.1-0.7-10.8,5.5-10.8c4.9,0,7.5,3.2,6.5,8C629.3,497.2,621.6,499.1,618.6,494.8z M215,493c-4.1-4.1-1.2-12,4.5-12
	c3.1,0,7.5,4.1,7.5,7s-4.4,7-7.5,7C218.1,495,216.1,494.1,215,493z M667.1,491.7c-5.9-3-3.9-11.9,2.9-12.6c6.6-0.6,9.7,7,4.7,11.6
	C672,493.3,670.5,493.5,667.1,491.7z M285.7,489.2c-2.2-2.4-2.1-7.5,0.2-9.5c1-0.9,3.5-1.7,5.5-1.7c3.1,0,3.9,0.5,5.3,3.1
	c1.3,2.5,1.4,3.6,0.4,5.9C295.3,491.2,288.6,492.5,285.7,489.2L285.7,489.2z M187.7,488.2c-2.2-2.4-2.1-7.5,0.2-9.5
	c1-0.9,3.5-1.7,5.5-1.7c6.2,0,8.7,6.9,4.1,11.4C195.3,490.6,189.7,490.4,187.7,488.2z M596.2,483.8c-4.4-4.7-1.5-11.8,4.8-11.8
	c5.9,0,9,6.4,5.3,10.9C603.5,486.2,598.9,486.6,596.2,483.8z M167,482.3c-2.5-3.2-2.1-6.8,1.1-9.5c4.4-3.7,10.8-0.6,10.8,5.3
	C179,484.6,171.1,487.4,167,482.3L167,482.3z M152.6,478.6c-1.4-1.4-2.6-3.3-2.6-4.2c0-1.5-0.2-1.5-2.2,0c-3.2,2.2-6.1,1.9-8.8-0.9
	c-1.3-1.4-3.4-2.5-4.7-2.5c-1.3,0-6.3-2-11.2-4.5c-43.2-21.7-81.6-54.1-109.2-92.2c-6.3-8.8-7.4-12.7-4.1-15.7
	c1.9-1.7,6.9-2.2,8.7-0.9c0.6,0.4,4.4,5,8.6,10.3c29,36.4,64.1,66.2,99.5,84.6c7.1,3.7,13.2,7.3,13.7,8c0.4,0.7,1.9,1.3,3.3,1.3
	c3.7,0,6.1,1.6,6.8,4.6c0.5,2,1,2.4,1.8,1.5c0.6-0.6,2.8-1.1,4.9-1.1c8.6,0,9.2,11.5,0.7,13.6C155.7,481,154.5,480.6,152.6,478.6
	L152.6,478.6z M645,479.7c-1.4-0.7-2.9-2.5-3.4-4c-2.2-6.1,6.7-11.4,11.4-6.8c2.6,2.6,2.7,7.5,0.1,10.1
	C650.7,481.3,648.5,481.5,645,479.7L645,479.7z M712.6,477.8c-3.4-4.9-0.7-10.8,5.1-10.8c6,0,9.2,5.9,5.8,10.8
	c-1.2,1.6-2.6,2.2-5.4,2.2S713.7,479.4,712.6,477.8z M257.5,472.5c-3-3-3.1-5.5-0.4-8.9c4-5.1,11.9-2.2,11.9,4.3c0,3.5-3.4,7-6.7,7
	C261,475,258.8,473.9,257.5,472.5L257.5,472.5z M623.2,469.8c-4.4-4.7-1.5-11.8,4.8-11.8c5.9,0,9,6.4,5.3,10.9
	C630.5,472.2,625.9,472.6,623.2,469.8z M283.6,468.9c-5-3.9-2.2-11.9,4.1-11.9c3.3,0,4.6,0.8,6.1,3.7c1.7,3.3,1.4,5.1-1.3,7.9
	C289.5,471.5,287.1,471.6,283.6,468.9L283.6,468.9z M694.2,468.7c-1.2-1.3-2.2-3.3-2.2-4.5c0-2.9,4.3-7.1,7.3-7.1
	c3.4,0,6.7,3.5,6.7,7C706,470.3,698.5,473.3,694.2,468.7z M235.1,467.4c-1.1-1.4-2.1-3.5-2.1-4.5c0-2.5,4.4-6.8,6.8-6.8
	c3.3,0,7.2,3.8,7.2,7.1C247,469.6,239,472.4,235.1,467.4z M598,464.8c-4-4.3-2.1-10.3,3.6-11.4c2.6-0.5,3.7-0.1,5.8,1.9
	c3.1,3.1,3.2,5.5,0.5,9C605.3,467.7,600.9,467.9,598,464.8z M211.1,460.4c-2.7-3.5-2.6-5.9,0.5-9c4.5-4.5,11.4-1.6,11.4,4.8
	C223,462.6,215,465.4,211.1,460.4L211.1,460.4z M669.2,459.4c-1.6-1.2-2.2-2.6-2.2-5.4s0.6-4.3,2.2-5.4c5-3.5,10.8-0.4,10.8,5.8
	C680,460.2,674.2,462.9,669.2,459.4z M185.5,452.5c-3-3-3.1-5.5-0.4-8.9c4-5.1,11.9-2.2,11.9,4.4C197,454.4,190,457.1,185.5,452.5
	L185.5,452.5z M645.6,450.4c-2.5-2.5-3-6.2-1.2-8.9c1.3-1.9,2.5-2.5,5.5-2.5c6.3,0,9.2,5.6,5.6,10.8
	C653.6,452.4,648,452.8,645.6,450.4L645.6,450.4z M256.6,448.9c-5-3.9-2.2-11.9,4.2-11.9c3.5,0,7.2,3.7,7.2,7.2c0,2.8-4.1,6.8-7,6.8
	C260,451,258.1,450.1,256.6,448.9z M282,448.8c-1.1-1.2-2-3.4-2-4.9c0-6.8,10.1-9.4,12.8-3.4c1.6,3.6,1.5,4.8-0.9,7.8
	C289.3,451.7,284.9,451.9,282,448.8L282,448.8z M166.6,444.9c-5.2-4.1-2.6-11.9,4.1-11.9c6.5,0,9.1,8,4.1,12.3
	C172.1,447.5,169.9,447.5,166.6,444.9L166.6,444.9z M597.6,444.8c-3.7-5.2-0.7-10.8,5.7-10.8c6.2,0,8.7,6.9,4.1,11.4
	C605,447.8,599.4,447.4,597.6,444.8z M624.3,444.5c-1.4-1-2.3-2.6-2.3-4.5c0-4.5,0.9-5.8,4.6-7.1c4.2-1.4,8,0.6,9,4.6
	C637.1,443.4,629.4,448.1,624.3,444.5z M866,434.9c-34.3-27.9-73.8-49.1-109.5-58.8c-6.6-1.8-13.3-3.9-14.8-4.7
	c-1.6-0.8-4.4-1.4-6.3-1.4c-3.3,0-7.4-2.8-7.4-5c0-0.5-0.9-0.1-2,1c-2.8,2.8-8.4,2.7-10.4-0.2c-3.7-5.2-0.7-10.8,5.7-10.8
	c2.8,0,4,0.6,5.3,2.5c1.5,2.3,1.8,2.4,3.4,1c1.9-1.8,8.1-2,9.7-0.5c0.6,0.6,3.5,1.2,6.5,1.4c6,0.4,24.7,5.6,39.6,11
	c26,9.5,60.6,29.4,83.3,47.8c21.3,17.3,23.9,20.8,19,25.7C883.9,448.1,880.6,446.7,866,434.9L866,434.9z M235,441
	c-2.4-2.4-2.6-7.2-0.4-9.4c2.4-2.4,9-2.1,10.9,0.7c2.1,3,2,6-0.5,8.6C242.4,443.6,237.7,443.7,235,441L235,441z M151.8,439
	c-0.9-0.5-1.9-2.2-2.3-3.7c-0.6-2.6-0.9-2.7-4.9-2.4c-3.7,0.3-4.6,0-6.4-2.2c-1.1-1.4-2.8-2.6-3.8-2.6s-4.5-1.9-7.9-4.2
	c-41.2-28.1-75.9-66-97.2-106.3c-5.8-10.9-6.6-15.2-3.6-17.9c2.4-2.2,7.5-2.1,9.4,0.1c0.9,1,3.9,5.8,6.8,10.8
	c23.6,40.3,53.7,73.7,91.5,101.5c8.9,6.6,10.1,7.3,13.2,8.8c1,0.5,2.4,2.1,3.3,3.8c1.3,2.6,2,2.9,5.3,2.6c4.7-0.4,7.7,1.9,7.7,6
	C163,438.5,156.7,441.8,151.8,439L151.8,439z M714,438c-4.3-4.3-1.1-12,4.9-12c3.4,0,7.1,3.9,7.1,7.6c0,2.8-4.3,6.4-7.6,6.4
	C717.1,440,715.1,439.1,714,438z M214,432.3c-4.6-1.6-5.4-8.1-1.4-11.2c3.6-2.8,6.8-2.6,9.3,0.6c2.6,3.3,2.6,6.4,0,9.2
	C220,432.9,217.2,433.4,214,432.3L214,432.3z M693.6,430.8c-2-2.9-2-7.2,0-9.2c2.4-2.4,9-2.1,10.9,0.7c2.1,3,2,5-0.5,8.1
	C701.2,433.8,695.8,434,693.6,430.8L693.6,430.8z M283.6,428.9c-3.8-5.4-0.9-10.9,5.7-10.9c5.8,0,8.3,5.5,4.8,10.8
	c-0.5,0.7-2.7,1.6-4.9,1.9C285.9,431.1,285,430.9,283.6,428.9L283.6,428.9z M595.6,426.8c-3.7-5.2-0.7-10.8,5.7-10.8
	c4.6,0,7.2,3.3,6.2,8C606.3,429.2,598.6,431.1,595.6,426.8z M668.4,426.2c-1.6-1.1-3.4-4.8-3.4-7c0-2.4,2.7-4.9,6-5.7
	c6.1-1.5,10.5,7,6,11.5C675,427,670.5,427.6,668.4,426.2L668.4,426.2z M258.9,422c-3.4-2-3-8.8,0.5-11.2c2.1-1.4,7.3-0.8,8.9,1.1
	c2.2,2.4,2.1,7.5-0.2,9.5C266.2,423.2,261.4,423.5,258.9,422z M643,420c-2.3-2.3-2.7-8.2-0.8-9.8c4.9-4,12.1-1.2,12.1,4.6
	C654.3,421.2,647.4,424.4,643,420z M186.6,418.8c-3.5-5-0.4-10.8,5.9-10.8c5.8,0,8.9,7.5,4.7,11.3
	C194.4,421.8,188.5,421.5,186.6,418.8z M620.5,417c-2.3-2.5-2.4-7.5-0.2-9.7c2-2,7.9-2.2,10.1-0.3c2.5,2.1,2.1,8.6-0.6,10.5
	C626.7,419.6,622.7,419.4,620.5,417L620.5,417z M239.2,411.4c-3-2.1-3-7.4,0.1-10.3c4.6-4.3,10.7-1.6,10.7,4.8c0,4.2-2.6,7-6.5,7
	C242.4,413,240.4,412.3,239.2,411.4z M287.7,411.2c-2.1-2.3-2.1-7.5-0.1-9.6c1.6-1.6,7-2.1,9.1-0.8c2.1,1.3,3.4,6.1,2.3,8.3
	C296.8,413.1,290.5,414.3,287.7,411.2L287.7,411.2z M591.6,409.8c-3.6-5.1-0.7-10.8,5.4-10.8c2.9,0,4.3,0.6,5.4,2.2
	c3.6,5.1,0.7,10.8-5.4,10.8C594.1,412,592.7,411.4,591.6,409.8z M169.6,408.9c-4.7-3.7-2.9-10.3,3.2-11.5c2.5-0.5,3.6-0.1,5.6,2
	c3.2,3.2,3.3,6.1,0.1,9.2C175.5,411.5,173.1,411.6,169.6,408.9L169.6,408.9z M709.7,402.2c-2.1-2.3-2.1-7.5-0.1-9.6
	c1.9-1.9,7.4-2.1,9.7-0.3c4.8,3.7,1.6,11.8-4.7,11.8C712.7,404,710.6,403.2,709.7,402.2L709.7,402.2z M156,401.2
	c-1.5-1.2-2.4-3-2.4-4.8c0-2.8-0.1-2.9-4.3-2.6c-3.9,0.3-4.5,0.1-6.1-2.7c-1-1.7-2.3-3.1-3-3.1c-1.9,0-11.8-8.7-24-21.1
	c-25-25.4-41.7-49-56.9-80.4c-9.9-20.6-14.7-33.6-13.5-36.9c1.7-4.5,8.4-6.2,11.2-2.9c0.8,1,3.1,5.6,5.1,10.3
	c9.5,22.5,17.5,37.6,30.5,57.5c11.5,17.6,21.3,29.6,38.5,46.9c9.2,9.3,16.8,17.5,16.8,18.3c0,0.7,1.1,1.3,2.4,1.3
	c2.7,0,5.6,3.3,5.6,6.5c0,1.8,0.5,2,3.5,1.7c4.5-0.5,7.5,1.9,7.5,6.3c0,4.1-1.8,6.4-5.5,7.1C159.3,403,157.7,402.6,156,401.2
	L156,401.2z M219.5,398.8c-2.8-1.6-3.5-2.8-3.5-6.4c0-3.8,2.7-6.4,6.7-6.4c3.9,0,6.3,2.8,6.3,7.3C229,398.7,224.3,401.5,219.5,398.8
	z M688.6,397.8c-3.8-5.5-0.6-11.1,6.1-10.6c8.8,0.7,7.7,12.8-1.2,12.8C691.1,400,689.6,399.3,688.6,397.8L688.6,397.8z M263.6,395.8
	c-2.1-3-2-5,0.5-8.1c2.5-3.2,7.7-3.6,10.3-0.8c2.1,2.3,2.1,7.5,0.1,9.6C272,398.9,265.4,398.5,263.6,395.8L263.6,395.8z M662,396
	c-2.6-2.6-2.6-8.1-0.2-10.3c2.5-2.3,7.5-2.1,9.7,0.4C677.4,392.5,668.2,402.2,662,396z M614.5,393.5c-4.7-4.7-1.7-11.5,5-11.5
	c6.3,0,8.9,8,3.9,11.9C619.9,396.6,617.5,396.5,614.5,393.5L614.5,393.5z M637.6,393.9c-5.2-4.1-2.6-11.9,3.9-11.9
	c3.5,0,4.7,0.8,6.3,3.7c1.7,3.3,1.4,5.1-1.3,7.9C643.5,396.5,641.1,396.6,637.6,393.9L637.6,393.9z M587.6,393.4
	c-2.5-2.5-2.4-6.8,0.2-9.7c2.1-2.3,7.5-2.3,9.6,0.1c2.2,2.4,2.1,7.5-0.2,9.5C594.9,395.4,589.6,395.5,587.6,393.4z M294.5,390.5
	c-1.4-1.3-2.5-3.6-2.5-5c0-3.3,3.6-6.6,7.2-6.6c6.4,0,9.2,8,4.2,11.9C299.9,393.6,297.5,393.5,294.5,390.5L294.5,390.5z
	 M873.5,388.1c-0.9-1.4-19.6-12.6-33-19.6c-33.3-17.5-69.7-29.4-102.8-33.5c-5.4-0.7-10-1.5-10.2-2s-2.4-0.5-4.8-0.3
	c-3.8,0.4-4.6,0.2-6.2-1.9l-1.8-2.4l-2.3,2.3c-3.2,3.2-7.7,3-10.3-0.4c-2.7-3.5-2.6-5.9,0.4-8.9c3.2-3.2,7-3.1,9.9,0
	c2.3,2.5,2.3,2.5,4.1,0.5c1.7-1.8,8.3-2.9,9.7-1.5c0.3,0.3,4.7,0.7,9.9,0.9c31.9,1.2,79.4,15.8,114,35c13.8,7.7,32.6,20.2,33.9,22.6
	c1.6,2.9,1.2,6.5-0.8,8.4C881.2,389.1,874.5,389.6,873.5,388.1L873.5,388.1z M246.6,383.4c-2.5-2.5-3-6.2-1.2-8.9
	c2.1-3.1,8.4-3.5,10.9-0.7c2.2,2.4,2.1,7.5-0.2,9.5C253.9,385.4,248.6,385.5,246.6,383.4L246.6,383.4z M194.7,382.2
	c-2.2-2.4-2.1-7.5,0.2-9.5c2.9-2.6,7.7-2.1,10.1,1c2.5,3.1,2.6,5.2,0.5,8.1C203.4,384.6,197.1,384.9,194.7,382.2z M578.7,377.2
	c-2.1-2.3-2.1-6.1-0.1-8.9c3.3-4.7,12.4-1.6,12.4,4.3C591,378.1,582.4,381.3,578.7,377.2L578.7,377.2z M273.7,372.2
	c-3.8-4.2-0.9-11.2,4.7-11.2c6.1,0,8.9,4.6,6.1,10c-1.3,2.5-2.1,3-5.4,3C276.7,374,274.7,373.3,273.7,372.2L273.7,372.2z M305.5,371
	c-2.6-2.9-2.4-7.9,0.5-10.1c4.7-3.8,11.1-0.8,11.1,5.2C317,372.1,309.4,375.3,305.5,371L305.5,371z M605.1,370.1
	c-2.7-2.7-2.8-8.2-0.3-10.4c2.4-2.2,7.5-2.1,9.5,0.2c2,2.2,2.2,7.1,0.4,9.5C612.6,372.1,607.5,372.5,605.1,370.1z M178.7,369.8
	c-2.7-2-3.2-6.9-1-9.7c2.3-2.8,7.5-3.1,10.3-0.5c2.4,2.2,2.5,7.6,0.1,9.8C186,371.3,181.1,371.5,178.7,369.8L178.7,369.8z
	 M228.4,368.2c-1.5-1-3.4-4.7-3.4-6.7c0-4.6,8.9-7.5,12.4-4c2.4,2.4,2,8-0.7,9.9C234.4,369.1,230.3,369.5,228.4,368.2L228.4,368.2z
	 M627,367c-4.4-4.4-1.4-12,4.8-12c2.9,0,7.2,4.2,7.2,7c0,2.9-4.4,7-7.5,7C630.1,369,628.1,368.1,627,367z M651.7,365.2
	c-2.2-2.4-2.1-7.5,0.2-9.5c2.6-2.4,8.8-2.2,10.1,0.3c1.6,3,1.2,7.6-0.8,9.4C658.7,367.5,653.7,367.4,651.7,365.2z M700.2,365
	c-6.2-5.8,2.4-15.2,9.1-9.9c1.8,1.4,2.7,3.1,2.7,5.1C712,366.2,704.7,369.2,700.2,365z M679,364c-4.3-4.3-0.7-12,5.6-12
	c2.7,0,6.4,4.3,6.4,7.4C691,365,683.1,368.1,679,364z M569.2,361.7c-4.3-4.6-1.6-10.7,4.8-10.7c4.6,0,7,2.1,7,6.1
	C581,363.3,573.5,366.3,569.2,361.7z M165.9,358.9c-1.5-1.5-2-3-1.7-5.3c0.4-3.1,0.3-3.2-3.7-3.2c-3.5,0-4.2-0.4-5.5-3.2
	c-0.8-1.8-2.5-3.6-3.6-4.2c-2.8-1.3-17.6-19.8-26.7-33.5c-20.9-31.4-35.7-65.8-43.6-101c-2.8-12.7-3-14.1-1.6-16.2
	c1.7-2.6,5.3-3.9,8.4-2.9c2.6,0.8,4.4,4.3,6.1,11.5c10.1,43.9,34.3,93.8,61.1,126c2.7,3.3,5.4,7.1,5.9,8.5s1.6,2.5,2.5,2.5
	c2.2,0,4.9,4.6,4.3,7.4c-0.4,2.2-0.1,2.4,3,2.3c6.2-0.2,9.5,7,5.2,11.3C173.4,361.6,168.6,361.6,165.9,358.9L165.9,358.9z
	 M258.3,357.5c-1.5-1.1-2.3-2.6-2.3-4.6c0-4.6,1.6-6.7,5.7-7.5c3.2-0.6,4-0.3,6,2c2.8,3.2,2.9,5.6,0.6,8.5
	C265.9,358.8,261.1,359.5,258.3,357.5L258.3,357.5z M317.7,354.2c-2.3-2.5-2.1-7.7,0.3-10.2c4.2-4.2,11.3-1.1,11.3,5
	C329.3,354.9,321.5,358.4,317.7,354.2z M286,350c-4.3-4.3-1.3-11,4.9-11c6.3,0,9.2,5.6,5.5,10.8C294.4,352.7,288.8,352.8,286,350z
	 M206.7,349.2c-2-2.2-2.1-7-0.3-9.4c0.9-1.2,2.7-1.8,5.4-1.8c3.2,0,4.4,0.5,5.7,2.6c1.9,2.9,1.5,6.3-1,8.8
	C214.3,351.6,208.7,351.4,206.7,349.2L206.7,349.2z M592.1,348.4c-1.1-1.4-2.1-3.5-2.1-4.5c0-2.7,4.4-6.8,7.3-6.8
	c3.3,0,6.7,4,6.7,7.7C604,350.9,596,353.4,592.1,348.4L592.1,348.4z M557.1,347.4c-2.4-3-2.5-3.7-0.9-6.7c1.5-2.9,2.8-3.7,6.4-3.7
	c3.8,0,6.4,2.7,6.4,6.7C569,349.9,561,352.4,557.1,347.4z M613.7,343.2c-2.2-2.4-2.1-7.5,0.2-9.5c2.7-2.5,8.7-2.2,10.6,0.6
	c2.1,3,2,6.4-0.4,8.8C621.4,345.6,615.9,345.6,613.7,343.2z M241,337.8c-4.3-4.6-1.4-10.8,5-10.8c4.2,0,7,2.6,7,6.5
	C253,339.6,245.3,342.4,241,337.8z M333.2,338.4c-1.5-1.1-2.2-2.6-2.2-4.8c0-4.2,1.7-6.5,5.5-7.2c4.3-0.8,7.8,2.1,7.8,6.6
	C344.3,338.8,338.1,341.9,333.2,338.4L333.2,338.4z M638.7,338.2c-2.2-2.4-2.1-7.5,0.2-9.5c2.4-2.2,7.5-2.1,9.5,0.2
	c2.2,2.4,2.1,7.5-0.2,9.5C645.7,340.5,640.7,340.4,638.7,338.2z M545,335.8c-4.3-4.6-1.4-10.8,4.9-10.8c4.6,0,7,2.1,7,6.1
	C557,337.3,549.2,340.3,545,335.8L545,335.8z M192.5,333.5c-3.1-3.1-3.1-6.6-0.1-9.4c4.5-4.2,11.7-1.4,11.7,4.6
	c0,3.3-0.8,4.6-3.7,6.1C197,336.6,195.2,336.3,192.5,333.5L192.5,333.5z M665.6,333.5c-3.2-3-3.3-5.4-0.6-8.9
	c2.5-3.2,7.7-3.6,10.3-0.8c2.3,2.5,2.1,7.7-0.3,10.2C672.3,336.7,668.9,336.5,665.6,333.5z M273.9,334c-0.9-0.5-2.2-2.3-2.9-4
	c-1.1-2.7-1-3.4,0.7-5.8c4.1-5.5,12.3-3.3,12.3,3.2c0,3.7-0.7,4.9-3.7,6.4C277.7,335.2,276.1,335.3,273.9,334L273.9,334z
	 M687.2,332.4c-3.3-2.3-3.1-8.6,0.2-10.8c5.2-3.4,10.5-0.8,10.5,5.3C698,333.2,692.4,336.1,687.2,332.4z M304.5,329.8
	c-2.8-1.6-3.5-2.8-3.5-6.4c0-6.6,8.2-8.7,12.3-3.2c1.8,2.4,1.8,3,0.7,5.8C312.1,330.7,308.5,332.1,304.5,329.8L304.5,329.8z
	 M577.4,329.2c-0.6-0.4-1.6-1.7-2.2-2.9c-3.3-6.2,6.4-12.7,11.2-7.5c2.1,2.3,2.1,7.5,0.1,9.6C584.8,330,579.3,330.5,577.4,329.2
	L577.4,329.2z M857.5,327.3c-11.5-6.3-43.3-17.7-64-22.9c-24-6-40.6-8.4-65-9.3c-12.1-0.4-22.4-0.4-23,0.1c-1.6,1.4-5.2,0.9-7.8-1.2
	l-2.5-2l-1.6,2.5c-1.3,1.9-2.5,2.5-5.5,2.5c-6.3,0-9.2-5.6-5.6-10.8c2.1-2.9,8.8-3.2,10.6-0.3c1.1,1.8,1.3,1.7,3.6-1
	c2.4-2.9,7.4-4,8.7-2c0.3,0.5,1.9,0.2,3.7-0.7c2.7-1.3,6.1-1.5,23.7-0.9c26.4,0.8,44,3.2,68.2,9.2c28,7,66.3,23.3,69.9,29.7
	c1.4,2.5,1.4,3,0,5.5c-1.3,2.3-2.3,2.8-6,3C862.3,328.9,859.3,328.3,857.5,327.3z M350.2,324.4c-1.6-1.2-2.2-2.6-2.2-5.4
	s0.6-4.3,2.2-5.4c4.9-3.4,11.1-0.4,11.1,5.4C361.3,324.8,355.1,327.9,350.2,324.4z M530.2,322.7c-2.8-3-2.8-6.2,0.3-9.2
	c3.2-3.2,6.9-3.2,9.5,0.2c3.3,4.2,2.7,8-1.6,10.2C535,325.6,532.6,325.2,530.2,322.7L530.2,322.7z M181.5,322
	c-1.2-1.4-1.7-3.1-1.4-5.8c0.3-3.7,0.2-3.8-2.3-3.5c-3.3,0.5-6.9-2.8-6.9-6.2c0-1.5-0.7-2.6-1.8-2.9c-2.4-0.6-14.5-21-23.1-38.9
	c-15.1-31.6-23.7-61.1-27.5-93.9c-2.8-24.5-2-29,5.1-29c5.6,0,6.4,1.5,7.9,15c5.7,49.3,19.6,92.1,41.9,129.1c3,5,5.5,9.7,5.5,10.4
	c0,0.7,1.4,2.6,3,4.3c3.1,3.1,3.6,5.1,2.1,8c-0.8,1.5-0.5,1.7,1.9,1.3c6.1-0.9,9.9,8.7,4.8,12.2C187.7,324.6,183.7,324.4,181.5,322
	L181.5,322z M597.6,319.9c-5-3.9-2-11.9,4.4-11.9c6.3,0,9.2,7.5,4.6,11.8C603.8,322.6,601,322.6,597.6,319.9L597.6,319.9z
	 M222.6,316.8c-3.3-4.8-0.7-10.8,4.8-10.8c4.7,0,7.7,2.4,7.7,6.4c0,4.2-2.6,6.6-7.3,6.6C225.1,319,223.7,318.4,222.6,316.8z
	 M367.6,313.9c-5.2-4.1-2.6-11.9,4-11.9c4.8,0,8.3,5.3,6.2,9.3C375.2,316.3,371.7,317.1,367.6,313.9z M515.3,314
	c-7.2-2.9-4.6-13,3.3-13c6.2,0,8.7,8,3.7,11.9C519.5,315.2,518.6,315.3,515.3,314z M260,312.7c-3.6-1.8-4.1-8.8-0.8-11.1
	c5.1-3.6,10.8-0.7,10.8,5.4C270,312.9,265.5,315.5,260,312.7z M622.5,312.8c-2.7-1.5-3.5-2.8-3.5-6.1c0-6.3,8-9.1,11.9-4.1
	c2.7,3.5,2.6,5.9-0.4,8.9C627.9,314.2,625.6,314.6,622.5,312.8z M320.9,311.2c-2.6-2.1-3.1-7.1-1-9.6c1.5-1.9,9.1-2.1,10.8-0.4
	c0.7,0.7,1.2,2.9,1.2,4.9C332,312.3,325.8,315.1,320.9,311.2L320.9,311.2z M558.7,311c-3.3-2.6-3.6-7.1-0.6-10.1
	c4-4,11.9-0.9,11.9,4.7C570,311.2,563.2,314.5,558.7,311z M292.2,309.4c-2.7-1.9-3-7.5-0.7-9.9c2.4-2.4,9-2.1,10.9,0.7
	c2.1,3,2,5-0.5,8.1C299.5,311.4,295.6,311.8,292.2,309.4L292.2,309.4z M496.1,304.4c-2.5-3.1-2.6-5.2-0.5-8.1
	c1.2-1.6,2.6-2.2,5.4-2.2c4.6,0,7,2.1,7,6.1C508,306.6,500,309.4,496.1,304.4z M385,303.3c-2.2-2.8-2.1-6.3,0.2-9
	c1.5-1.8,8.3-1.6,10.2,0.3c2.4,2.4,2,8-0.7,9.9C391.3,306.9,387.5,306.4,385,303.3L385,303.3z M647.2,303.4c-2.8-2-3-7.4-0.4-9.8
	c2.1-1.9,8.2-2.2,10-0.5c1.9,1.9,1.5,8.2-0.6,10.1C653.9,305.4,650.1,305.5,647.2,303.4L647.2,303.4z M211,300
	c-2.5-2.5-2.6-7.2-0.2-9.3c2.7-2.5,8.7-2.2,10.6,0.6c3.4,4.8,0.4,10.8-5.4,10.8C214.3,302,212.1,301.1,211,300z M402.6,298.8
	c-3.6-5.1-0.7-10.8,5.4-10.8c2.9,0,4.3,0.6,5.4,2.2c3.6,5.1,0.7,10.8-5.4,10.8C405.1,301,403.7,300.4,402.6,298.8z M478,299.4
	c-1.9-2.2-1.6-7.1,0.5-9.4c2.3-2.6,7.6-2.7,9.9-0.2c2.1,2.3,2.1,7.5,0.1,9.6C486.4,301.5,479.6,301.5,478,299.4L478,299.4z
	 M577.6,299.4c-4.2-4.2-2.3-10.7,3.5-11.9c6.3-1.4,10.6,6.9,6,11.5C584.6,301.4,579.8,301.6,577.6,299.4z M669.2,300
	c-2-0.8-4.2-4.5-4.2-7.1c0-2.1,5-5.9,7.8-5.9c5.7,0,8.4,7.8,4.2,12C674.8,301.2,672.8,301.4,669.2,300L669.2,300z M460.1,297.1
	c-4.6-4.6-1.6-12.1,5-12.1c5.1,0,8.5,7.9,4.8,11.5C467.3,299.2,462.4,299.4,460.1,297.1z M420.1,295.5c-2.7-3.4-2.7-5.5-0.1-8.8
	c2.6-3.3,7-3.5,9.9-0.4c4.1,4.4,1.8,10.1-4.6,11.4C422.8,298.1,421.9,297.7,420.1,295.5z M439.2,295.7c-4.3-4.6-1.4-11.7,4.8-11.7
	c7.5,0,9.4,10.4,2.4,13C442.7,298.5,441.6,298.2,439.2,295.7z M341.7,295.2c-2.2-2.4-2.1-7.5,0.2-9.5c2.3-2.1,8.5-2.2,10.2-0.1
	c2,2.4,1.7,8.1-0.6,9.9C348.7,297.5,343.6,297.4,341.7,295.2L341.7,295.2z M537.1,295.7c-0.6-0.7-1.4-2.7-1.7-4.4
	c-0.8-4,2.3-7.3,6.9-7.3c5.9,0,8.6,5.8,5.1,10.8C545.6,297.3,539,297.9,537.1,295.7L537.1,295.7z M312,290c-4.3-4.3-1.3-11,4.9-11
	c6.3,0,9.2,5.6,5.5,10.8C320.4,292.7,314.8,292.8,312,290z M244,289c-6.1-6.1,2.3-15.8,8.8-10.3c3.4,2.9,3.8,6.7,0.8,9.7
	C250.6,291.5,246.7,291.7,244,289z M600.2,288.4c-1.6-1.2-2.2-2.6-2.2-5.4s0.6-4.3,2.2-5.4c4.9-3.4,10.8-0.7,10.8,5
	C611,288.8,605.2,292,600.2,288.4z M202,286.8c-2.4-2.6-2.6-5.6-0.5-8.6c1.5-2.2,1.5-2.2-1.1-1.6c-3.3,0.8-7.5-2.8-7.5-6.4
	c0-1.4-0.7-3-1.5-3.6c-1.8-1.3-10.1-20.6-15-34.7c-4.9-14-11-39.7-13.5-56.4c-2.5-16.6-3.6-48.4-2.2-62.9c1.1-11,2.1-12.6,7.7-12.6
	c6.1,0,6.2,0.6,6.8,31.5c0.9,49.5,8.4,86.3,24.6,122c1.7,3.8,3,7.5,2.7,8.1c-0.3,0.7,0.6,2.2,2,3.5c2.6,2.5,3,4.9,1.4,8
	c-0.9,1.6-0.7,1.9,1,1.9c2.9,0,7,4.4,7,7.5C214,288.3,206.1,291.2,202,286.8L202,286.8z M281.5,286.5c-4.6-4.6-2.1-11.5,4.1-11.5
	c6.8,0,9.8,6.8,5,11.5C287.4,289.7,284.6,289.7,281.5,286.5L281.5,286.5z M365.7,282.2c-2.2-2.4-2.1-7.5,0.2-9.5
	c4.7-4.2,12.9-0.1,11.7,5.8c-0.3,1.6-1.3,3.6-2.3,4.3C372.8,284.6,367.6,284.3,365.7,282.2z M514.8,281.9c-2.4-1.4-2.4-8.1,0.1-10.3
	c3.8-3.4,9.7-1.5,11.5,3.7c0.7,1.9-0.8,5.6-2.7,6.9C522,283.3,516.8,283.1,514.8,281.9L514.8,281.9z M554.7,281.2
	c-2.2-2.4-2.1-7.5,0.2-9.5c1.9-1.7,6.8-2.2,8.8-0.9c2,1.3,3.5,5.3,2.9,7.3C564.9,283,558,284.8,554.7,281.2z M624.6,275.9
	c-5-3.9-2.2-11.9,4.2-11.9c6.3,0,9.4,7.5,4.9,11.8C630.8,278.6,628,278.6,624.6,275.9L624.6,275.9z M337.2,274
	c-2.7-2.6-2.9-8-0.4-10.3c2.4-2.2,7.5-2.1,9.5,0.2c3.7,4.1,0.5,12.2-4.8,12.2C340.3,276,338.4,275.1,337.2,274L337.2,274z
	 M390.7,273.2c-2.2-2.4-2.1-7.5,0.2-9.5c1.9-1.7,6.8-2.2,8.8-0.9c1.5,1,3.4,4.7,3.4,6.7C403,274.2,394,276.9,390.7,273.2
	L390.7,273.2z M488.2,272.8c-1.5-1.5-1.6-7.2-0.2-9.9c1.4-2.6,8-2.7,10.3-0.1c2.1,2.3,2.1,7.5,0.1,9.6
	C496.6,274.3,489.9,274.5,488.2,272.8z M234,270c-4-4-1.9-10,4.2-11.5c2.1-0.5,3.3-0.1,5.3,1.9c3.1,3.1,3.2,5.5,0.5,9
	C241.4,272.6,236.9,272.9,234,270z M827.5,268.4c-15.3-4.4-42.7-9.9-57.5-11.5c-6.3-0.7-21-1.3-32.5-1.3c-21.2,0-33.8,1.1-59.6,5
	c-2.6,0.4-4.1,0.1-5.3-1.1c-1.3-1.3-1.7-1.4-1.7-0.3c0,0.8-1,2.4-2.3,3.6c-5,4.7-12.4,1.1-11.3-5.6c0.3-2,1.2-3.9,1.9-4.4
	c1.8-1.2,8.2-1,9.4,0.2c0.7,0.7,1.8,0,3.3-2.1c1.9-2.6,2.8-3,6.1-2.8c2.1,0.2,4.5-0.3,5.4-1c4.5-3.7,37.2-6.6,67.5-5.8
	c24.7,0.6,36.2,1.9,55.9,6.3c14.2,3.2,39,11.1,41.4,13.2c1.9,1.7,2.3,6.3,0.7,9.3C847.4,272.9,841.7,272.5,827.5,268.4L827.5,268.4z
	 M415,268c-4.3-4.3-1.3-11,4.9-11c6.3,0,9.2,5.6,5.5,10.8C423.4,270.7,417.8,270.8,415,268z M465,268c-4.1-4.1-1.2-12,4.5-12
	c3,0,7.5,4.1,7.5,6.8C477,268.7,469.1,272.1,465,268z M643.7,268.2c-2.1-2.3-2.1-6.1-0.1-8.9c1.2-1.6,2.6-2.2,5.4-2.2
	c6.2,0,8.8,5.3,5.4,10.5C652.4,270.6,646.2,271,643.7,268.2L643.7,268.2z M575,267c-2.6-2.6-2.5-6,0.1-9.4c2.5-3.2,5.7-3.4,9.3-0.6
	c5.1,4,2.2,11.9-4.4,11.9C578.3,269,576.1,268.1,575,267z M304.6,266.4c-2.1-2.1-2-7.7,0.3-9.8c2.3-2.1,7.5-2.1,9.6-0.1
	c2.1,2.1,2,7.7-0.3,9.8C311.9,268.4,306.6,268.5,304.6,266.4z M441.6,266.5c-3.1-3.1-2.8-8.4,0.8-10.7c2.1-1.4,7.3-0.8,8.9,1.1
	c2.2,2.4,2.1,7.5-0.2,9.5C448.9,268.4,443.6,268.5,441.6,266.5z M530,265c-2.8-2.8-2.7-8.4,0.2-10.4c4.9-3.4,11.1-0.4,11.1,5.4
	C541.3,266.1,534.2,269.2,530,265L530,265z M271.5,262.8c-2.8-1.6-3.5-2.8-3.5-6.5c0-6.1,8-8.6,11.9-3.7c2.7,3.4,2.6,5.5-0.4,8.7
	C276.9,264.2,274.7,264.6,271.5,262.8z M364.2,260.4c-2.8-2-3-7.4-0.4-9.8c2.7-2.5,8.7-2.2,10.6,0.6c2.2,3.1,1.9,5.5-0.9,8.3
	C370.7,262.4,367.4,262.7,364.2,260.4z M227,255.8c-2.2-2.3-2.6-6.3-1.1-8.8c0.7-1.1,0.2-1.8-2.3-3c-2.7-1.3-3.3-2.1-3.5-5.5
	c-0.2-2.2-0.9-4.7-1.7-5.5c-2.9-3.2-10.2-33.7-13.1-55c-2.2-16-2.5-61.7-0.5-76c2.2-15.3,6.2-33.4,7.9-35.3c2.1-2.4,7.5-2.3,9.7,0.2
	c2.3,2.5,2.3,5.2,0.2,17c-4.6,25.9-6.1,61.5-3.6,86.6c1.4,14.6,5.2,34.6,8.8,47.3c1.6,5.7,2.7,11,2.4,11.8c-0.3,0.8,0.1,2.2,0.9,3.2
	c2.5,2.9,2.8,5.2,1.2,8.3c-1.4,2.8-1.4,2.9,0.4,2.9c2.3,0,6.1,4.5,6.1,7.2c0,2.7-4.5,6.8-7.4,6.8C230.2,258,228.2,257,227,255.8
	L227,255.8z M501.2,254c-4.4-4.1-1.5-12,4.4-12c3.2,0,7.5,4.2,7.5,7.4c0,2.9-4.2,6.6-7.4,6.6C504.4,256,502.4,255.1,501.2,254
	L501.2,254z M598,252c-1.1-1.1-2-3.3-2-5c0-6.5,7.9-9.4,11.9-4.4c2.7,3.5,2.6,5.9-0.4,8.9C604.6,254.5,600.7,254.7,598,252L598,252z
	 M392,251c-4.6-4.6-0.4-12.9,6-11.5c5.7,1.3,7.6,7.8,3.5,11.9C399.2,253.6,394.4,253.4,392,251z M332.1,248.4
	c-2.7-3.5-2.6-5.9,0.4-8.9c4.8-4.8,11.5-1.8,11.5,5C344,250.8,336.1,253.4,332.1,248.4z M475,248c-4.1-4.1-1.2-12,4.5-12
	c3,0,7.5,4.1,7.5,6.8C487,248.7,479.1,252.1,475,248z M547.7,247.2c-2.2-2.4-2.1-7.5,0.2-9.5c2.5-2.3,7.5-2.1,9.7,0.4
	c2.1,2.3,2.4,7.2,0.5,9.4C556.2,249.6,549.7,249.5,547.7,247.2z M419.6,246.4c-2.5-2.5-3-6.2-1.2-8.9c1.3-1.9,2.5-2.5,5.5-2.5
	c6.3,0,9.2,5.6,5.6,10.8C427.6,248.4,422,248.8,419.6,246.4L419.6,246.4z M448.7,245.2c-2.1-2.3-2.1-7.5-0.1-9.6
	c1.9-1.9,8.8-2.1,10.2-0.3c3.9,4.7,0.8,11.7-5.2,11.7C451.7,247,449.6,246.2,448.7,245.2L448.7,245.2z M264.5,242.8
	c-2.7-1.5-3.5-2.8-3.5-6.1c0-3.4,3.2-6.8,6.5-6.8c3.1,0,7.5,4.1,7.5,7c0,2.6-4.3,7-6.7,7C267.3,244,265.6,243.4,264.5,242.8
	L264.5,242.8z M616,241.1c-1.8-3.4-1.2-7.8,1.2-9.5c4.7-3.3,10.8-0.7,10.8,4.6c0,5.2-1.5,6.9-6.5,6.9
	C618.1,243,616.8,242.5,616,241.1L616,241.1z M297.2,240.4c-2.8-2-3-7.4-0.4-9.8c2.7-2.5,8.7-2.2,10.6,0.6c2.1,3,2,5-0.5,8.1
	C304.5,242.4,300.6,242.8,297.2,240.4L297.2,240.4z M363.1,234.4c-2.5-3.1-2.6-5.2-0.5-8.1c1.1-1.6,2.6-2.2,5.3-2.2
	c4.6,0,7.1,2.4,7.1,6.8C375,236.8,366.9,239.3,363.1,234.4z M516.2,234c-4.5-4.2-1.6-11,4.7-11c4.6,0,7.1,2.4,7.1,6.8
	C528,235.5,520.6,238.1,516.2,234L516.2,234z M630.6,234.4c-0.9-0.9-1.6-3.1-1.6-4.9s0.7-4.1,1.6-4.9c1.8-1.8,6.6-2.1,9.5-0.5
	c1.7,0.9,1.9,0.7,1.9-1.5c0-3.1,4-6,7.5-5.3c1.4,0.3,2.5,0.1,2.5-0.4c0-3.6,41.2-14.1,67-17c16.6-1.9,54.4-1.6,70,0.5
	c14.7,2,26.5,4.3,29.1,5.7c4.5,2.4,4.6,8.7,0.3,11.6c-2.1,1.4-3.4,1.3-12.6-0.1c-5.7-0.9-15.3-2-21.3-2.6c-14.3-1.3-53.4-1.3-66.6,0
	c-13.6,1.4-33.8,5.3-46.9,9.2c-5.8,1.7-11.7,3.2-13.1,3.3c-1.4,0.1-3.7,0.9-5,1.8c-3,2.1-5.8,2.1-8.7,0.1c-2.1-1.5-2.2-1.4-2.2,0.8
	C642,235.2,634.2,238.1,630.6,234.4z M567.7,229.2c-2.3-2.5-2.1-7.7,0.3-10.2c4.2-4.2,11.3-1.1,11.3,5
	C579.3,229.9,571.5,233.4,567.7,229.2z M257.7,226.2c-2.1-2.3-2.1-6.1-0.1-9c1.5-2.1,1.4-2.3-1-3.2c-2.7-1-4.2-4.7-3.3-8.2
	c0.3-1.2,0-2.7-0.7-3.4c-1.6-1.6-3.3-14-4.7-35.9c-2.5-37.4,3.8-81.6,16.7-116.2c5-13.4,5.7-14.4,10.3-14.4c4.1,0,7.1,2.3,7.1,5.5
	c0,1-1.6,6.8-3.6,12.9c-7.7,23.9-13.1,49-15.4,72.5c-1.3,13.6-1.3,45.3,0.1,56.6c0.6,4.9,1.2,11.3,1.3,14.2c0.1,2.9,0.5,5.5,0.9,5.9
	s0.7,2.4,0.7,4.6c0,2.7-0.6,4.2-2,5c-1.8,1.1-1.8,1.3,1.2,2.3c4.2,1.4,5.8,6.2,3.4,10C266.5,228.6,260.3,229,257.7,226.2
	L257.7,226.2z M395,226c-2.5-2.5-2.6-7.2-0.2-9.3c2.7-2.5,8.7-2.2,10.6,0.6c3.4,4.8,0.4,10.8-5.4,10.8
	C398.3,228,396.1,227.1,395,226z M487.6,226.4c-2.5-2.5-3-6.2-1.2-8.9c2.1-3.1,8.4-3.5,10.9-0.7c2.2,2.4,2.1,7.5-0.2,9.5
	C494.9,228.4,489.6,228.5,487.6,226.4L487.6,226.4z M328.1,221.4c-2.7-3.5-2.6-5.9,0.4-8.9c4.6-4.6,11.5-1.8,11.5,4.5
	C340,223.5,332.1,226.4,328.1,221.4z M425.6,221.8c-3.8-5.4-0.1-12.5,5.8-11.4c4.2,0.8,6,2.8,6,6.5
	C437.3,223.4,429,226.8,425.6,221.8L425.6,221.8z M458.7,222.2c-2.1-2.3-2.1-7.5-0.1-9.6c0.9-0.9,3.3-1.6,5.5-1.6
	c3.3,0,4.1,0.4,5.4,2.9c1.6,3.1,1.2,5.4-1.3,8.3C466.2,224.6,460.8,224.5,458.7,222.2L458.7,222.2z M292.6,219.4
	c-3.9-3.9-0.7-11.4,4.8-11.4c6.7,0,9.6,8.6,4.2,12.2C299.7,221.5,294.2,221,292.6,219.4z M584.7,216.2c-1.9-2.1-2.2-6.4-0.6-9.2
	c0.8-1.5,2.1-1.9,5.5-1.9c3.9,0,4.6,0.4,6,2.9c1.1,2.1,1.3,3.6,0.6,5.4C594.3,218,587.7,219.6,584.7,216.2L584.7,216.2z
	 M533.5,212.5c-2.7-2.7-3-4.3-1.3-8c1.4-3,5-4.2,8.7-2.9c5,1.8,5.4,10,0.6,12.2C537.7,215.5,536.2,215.3,533.5,212.5z M363.5,207.5
	c-3.1-3.1-3.1-6.6-0.1-9.4c4.5-4.2,11.7-1.4,11.7,4.6c0,3.3-0.8,4.6-3.7,6.1C368,210.6,366.2,210.3,363.5,207.5L363.5,207.5z
	 M597.4,206.4c-2-2-2.4-3.1-1.9-5.3c1.2-4.7,3.5-6.5,7.8-5.9c3.4,0.5,3.8,0.3,4.4-2.2c0.9-3.9,2.3-5.2,5.4-5.2c1.7,0,4-1.1,5.8-2.8
	c6.5-6.1,41.7-19.9,67.7-26.5c24.5-6.3,39.4-8,68.2-8.1c28-0.1,28.6,0.1,28.6,6.5c0,6-1.7,6.5-25,7.3
	c-47.2,1.6-87.8,10.7-124.2,27.7c-5.7,2.7-10.9,4.9-11.6,4.9c-0.7,0-2.1,0.9-3.1,2.1c-1.5,1.7-2.7,2-6.2,1.6
	c-3.9-0.4-4.3-0.3-4.3,1.9c0,3.1-3.3,6.4-6.5,6.4C601.1,209,598.8,207.9,597.4,206.4L597.4,206.4z M290,204c-1.1-1.1-2-3.3-2-5
	c0-1.8,0.8-3.7,2-4.7c2.4-2,2.6-3.3,0.5-3.3c-0.8,0-2.2-1.2-3.2-2.6c-1.4-2.2-1.5-3.1-0.5-5.7c0.8-2.1,0.8-3.4,0.2-4.1
	c-2.3-2.3-0.5-37.3,3.1-59.6c5.1-32,15.4-63.2,30-90.6c3.3-6.1,6.6-11.4,7.5-11.8c4.9-1.9,10.4,1.1,10.4,5.6c0,1.2-2.1,6.5-4.6,11.8
	c-20.5,42.5-31.4,84.2-33,127c-0.3,9.1-1,17-1.4,17.5c-0.4,0.6-0.4,1.7,0.1,2.5c1.5,2.4,1.1,6.8-0.8,8.7c-1.7,1.7-1.7,1.9,1,4.4
	c3.3,3.2,3.5,5.7,0.7,9.2C297.4,206.6,292.9,206.9,290,204L290,204z M502.2,203.4c-1.6-1.2-2.2-2.6-2.2-5.4s0.6-4.3,2.2-5.4
	c5.1-3.6,10.8-0.7,10.8,5.4c0,4.2-2.6,7-6.5,7C505.4,205,503.4,204.3,502.2,203.4z M327.1,200.4c-2.4-3-2.6-4.6-0.9-7.7
	c1.5-2.9,2.8-3.7,6.1-3.7c6.1,0,8.9,7.6,4.4,11.8C333.5,203.8,329.6,203.6,327.1,200.4z M398.6,198.8c-3.7-5.2-0.7-10.8,5.7-10.8
	c6.2,0,8.7,6.9,4.1,11.4C406,201.8,400.4,201.4,398.6,198.8z M548.5,197.5c-3.1-3.1-3.1-6.6-0.1-9.4c4.4-4.2,11.7-1.4,11.7,4.4
	c0,3.1-4.1,7.5-7,7.5C551.8,200,549.8,198.9,548.5,197.5z M469.7,197.2c-2.1-2.3-2.1-7.5-0.1-9.6c1.9-1.9,7.4-2,9.9-0.2
	c2.4,1.8,2.4,7,0,9.6C477.2,199.5,471.9,199.6,469.7,197.2L469.7,197.2z M433.5,195.5c-4.6-4.6-1.8-11.5,4.5-11.5
	c6.5,0,9.4,7.9,4.4,11.9C438.9,198.6,436.5,198.5,433.5,195.5L433.5,195.5z M365.5,186.5c-3-3-3.1-5.5-0.4-8.9c1.4-1.8,3-2.6,5-2.6
	c6.5,0,9.3,8,4.3,11.9C370.9,189.6,368.5,189.5,365.5,186.5L365.5,186.5z M514.6,185.9c-1.7-1.4-2.6-3-2.6-4.9c0-3.3,4-7,7.5-7
	c2.9,0,6.5,4,6.5,7.3c0,3.1-3.5,6.7-6.6,6.7C518.2,188,516.1,187.1,514.6,185.9L514.6,185.9z M559.5,186.6c-2.2-1.6-2.6-7.6-0.6-10
	c0.8-1,2.9-1.6,5.2-1.6c3.3,0,3.9-0.3,3.9-2.1c0-3.4,1.9-5.8,5.5-7.4c1.9-0.8,3.5-1.9,3.5-2.4c0-1.3,18.1-13.5,31.4-21.2
	c25.5-14.6,58.4-27,87.7-33c13.6-2.8,33.9-4.9,36.7-3.9c4.5,1.7,5.5,9.6,1.5,11.8c-1,0.5-7.6,1.9-14.7,3.1
	c-46.6,7.7-88.1,23.2-122.3,45.6c-6.2,4.1-12.1,7.4-13,7.4c-0.9,0-2.5,1.4-3.4,3c-1.5,2.6-2.3,3-5.8,3c-3.8,0-4,0.2-4,2.8
	C571,187.1,564.1,190,559.5,186.6L559.5,186.6z M327.2,185.4c-3.1-2.1-3.1-8.7-0.1-10.8l2.1-1.5l-2.1-2.7c-2.2-2.8-2.8-6.9-1.2-7.9
	c0.5-0.3,0.9-3.4,0.9-6.8c0.1-6.6,3.9-28.9,7.3-42.3c9-35.3,27.6-74.2,48.7-102c5.5-7.2,5.8-7.5,9.9-7.5c3.6,0,6.3,2.9,6.3,6.9
	c0,1.3-2.6,6.3-5.9,11c-21.7,31.8-38.2,67.6-46.7,101.1c-3.4,13.3-7.6,36.7-7.5,41.6c0.1,3.1-0.5,4.6-2.4,6.3
	c-2.4,2.3-2.4,2.3-0.5,4.2c2.5,2.5,2.5,8.1,0.1,10.3C333.9,187.4,330.1,187.5,327.2,185.4z M404.1,178.4c-3.9-5-1.6-11.4,4.2-11.3
	c4.1,0,6.5,1.9,7.3,5.8c0.5,2.5,0.1,3.6-2,5.6C410.3,181.8,406.7,181.7,404.1,178.4L404.1,178.4z M480.5,178.5
	c-1.3-1.4-2.5-3.6-2.5-4.9c0-2.7,4.1-6.6,7-6.6c1,0,2.9,0.9,4.4,2.1c3.3,2.6,3.5,7,0.4,9.9C486.9,181.7,483.4,181.5,480.5,178.5z
	 M441,176c-4.1-4.1-0.8-12,4.9-12c2.7,0,7.1,4.2,7.1,6.8C453,176.7,445.1,180.1,441,176z M523.7,173.2c-2.2-2.4-2.1-7.5,0.2-9.5
	c1-0.9,3.2-1.7,5-1.7c2.9,0,3.1-0.2,2.6-2.9c-0.5-2.3,0-3.5,2-5.5c1.4-1.4,3.2-2.6,4-2.6c0.8,0,1.7-1,2-2.3
	c1.1-4.3,29.3-27.2,47.8-38.8c27.5-17.3,55.8-29.6,84.5-36.8c11-2.7,15.8-2.7,17.8,0.2c4.3,6.1,1,9.5-13.5,13.7
	c-45.7,13.3-85.3,34.4-119.3,63.6c-4.8,4.1-9.4,7.5-10.1,7.5c-0.8,0-1.4,0.7-1.4,1.5c0,2.5-4.3,5.7-7,5.3c-2.3-0.3-2.5-0.1-2.5,3.5
	c0,2.7-0.6,4.3-1.9,5.3C530.8,175.6,525.6,175.4,523.7,173.2L523.7,173.2z M367,171c-2.7-2.7-2.6-7.4,0.2-10c1.2-1.1,2.6-2,3.2-2
	c0.5,0,0.2-0.8-0.7-1.8c-2.1-2.3-2.2-9-0.2-9.8c1-0.4,1.3-1.4,0.9-3.3c-0.3-1.7,1-7.5,3.7-15.7c15.1-46.6,37.3-84.2,69.3-117.2
	C452.5,1.8,453.6,1,457.1,1c2.8,0,4.2,0.6,5.3,2.2c2.9,4.1,1.9,6.2-8.5,17.9c-24.3,27.3-44.3,57.4-56.6,85.1
	c-2.5,5.5-6.7,16.8-9.5,25.1s-5.4,15.5-5.9,16c-0.5,0.5-0.9,2.7-0.9,4.8c0,3.2-0.5,4.1-3,5.6c-3,1.8-3,1.8-1,3.6
	c2.7,2.4,2.5,6.1-0.5,9C373.6,173.5,369.7,173.7,367,171L367,171z M488,164.8c-4.2-4.5-1.5-10.8,4.8-10.8c3,0,3.1-0.1,2-2.4
	c-1.6-3.5-0.3-7.3,3.2-9.1c1.6-0.8,3-2.3,3-3.2c0-3.3,21.2-26,36.9-39.6c26.2-22.6,55.3-40.5,84.9-52.1C637,42,642,42.9,642,50.8
	c0,3.8-1.7,5.1-12.5,9.7C588,78,548.1,105.8,520.3,136.9c-4.7,5.3-9.3,10-10.2,10.4s-2.3,2.2-3.1,4c-0.9,2-2.7,3.6-4.5,4.2
	c-2.6,0.9-3,1.4-2.7,4.2C500.4,166.1,492.5,169.6,488,164.8z M407.6,162.8c-3.1-4.4-0.8-10.8,3.8-10.8c2,0,2,0,0.2-3.7
	c-1.7-3.4-0.7-7.9,2-8.9c1-0.4,1.3-1.3,1-2.5c-0.4-1.2,1.8-6.8,5.8-15.1c20.6-42.7,50.9-80,88.5-108.5c8.6-6.6,12.6-7.7,15.7-4.6
	c1.6,1.6,2.1,7.1,0.8,9c-0.4,0.6-5,4.6-10.2,9c-18.3,15.1-41.1,38.6-54.1,55.9c-11.4,15.1-23.6,35.2-30.8,50.8
	c-2.2,4.8-4.5,8.8-5,8.8s-1.1,1.6-1.3,3.6c-0.2,2.9-0.9,4-3.4,5.3c-2.9,1.5-3,1.8-1.7,3.6c1.8,2.4,1,7.4-1.4,9.2
	C414.5,165.8,409.3,165.3,407.6,162.8L407.6,162.8z M446.6,160.8c-3.4-4.9-0.8-10.8,4.8-10.8c2.6,0,2.7-0.1,1.2-2.2
	c-2.2-3.2-1.9-5,1.4-9.3c1.6-2.1,3-4.4,3-5.1c0-0.7,3.5-6.6,7.8-13.1c25.4-38.4,60.4-71.8,97.1-92.6c9.9-5.6,12.6-6.8,15.7-6.5
	c2.8,0.2,4.1,1,5.2,2.9c2.7,4.8,1,7.2-9.6,13.7c-41.4,25.5-73.4,55.7-99.1,93.5c-4,5.9-7.7,10.7-8.3,10.7c-0.5,0-0.9,1.1-0.9,2.4
	c0,2.5-4.1,6.6-6.6,6.6c-1,0-1.1,0.6-0.4,2.6c1.4,3.7,1.2,5.2-1,7.4C454.2,163.8,448.6,163.7,446.6,160.8z"/>
</svg>
