<?xml version="1.0" encoding="UTF-8" standalone="no"?>
<!-- Created with Inkscape (http://www.inkscape.org/) -->

<svg
   xmlns:dc="http://purl.org/dc/elements/1.1/"
   xmlns:cc="http://creativecommons.org/ns#"
   xmlns:rdf="http://www.w3.org/1999/02/22-rdf-syntax-ns#"
   xmlns:svg="http://www.w3.org/2000/svg"
   xmlns="http://www.w3.org/2000/svg"
   xmlns:sodipodi="http://sodipodi.sourceforge.net/DTD/sodipodi-0.dtd"
   xmlns:inkscape="http://www.inkscape.org/namespaces/inkscape"
   version="1.1"
   id="svg4518"
   width="264"
   height="225"
   viewBox="0 0 264 225"
   sodipodi:docname="foot chart.svg"
   inkscape:version="0.92.3 (2405546, 2018-03-11)">
  <metadata
     id="metadata4524">
    <rdf:RDF>
      <cc:Work
         rdf:about="">
        <dc:format>image/svg+xml</dc:format>
        <dc:type
           rdf:resource="http://purl.org/dc/dcmitype/StillImage" />
        <dc:title></dc:title>
      </cc:Work>
    </rdf:RDF>
  </metadata>
  <defs
     id="defs4522" />
  <sodipodi:namedview
     pagecolor="#ffffff"
     bordercolor="#666666"
     borderopacity="1"
     objecttolerance="10"
     gridtolerance="10"
     guidetolerance="10"
     inkscape:pageopacity="0"
     inkscape:pageshadow="2"
     inkscape:window-width="1366"
     inkscape:window-height="745"
     id="namedview4520"
     showgrid="false"
     showguides="true"
     inkscape:guide-bbox="true"
     inkscape:zoom="1.9778977"
     inkscape:cx="108.51487"
     inkscape:cy="104.79092"
     inkscape:window-x="-8"
     inkscape:window-y="-8"
     inkscape:window-maximized="1"
     inkscape:current-layer="svg4518" />
  <path
     style="fill:#000000;fill-opacity:1;stroke-width:0.66666669"
     d="m 164.52806,221.5977 c -1.19542,-0.57966 -3.90372,-2.30541 -6.01845,-3.83502 -6.66281,-4.81929 -11.33904,-14.39149 -10.82391,-22.15647 0.24481,-3.69106 3.97575,-9.56111 16.99366,-26.73731 15.83661,-20.89521 18.49329,-25.5806 26.8499,-47.35289 2.88683,-7.52137 6.02954,-15.14515 6.98379,-16.94175 4.90164,-9.228498 15.49455,-20.267664 24.07169,-25.085781 8.83331,-4.962014 17.91666,-5.204075 25.65124,-0.683575 9.11588,5.327818 13.87605,13.60478 14.85063,25.822296 0.45703,5.72943 -3.85951,24.06953 -7.28351,30.94586 -3.36808,6.76408 -11.86712,18.61493 -20.78232,28.97835 -4.25845,4.95022 -12.67755,15.18438 -18.70912,22.74262 -6.03155,7.55822 -12.45504,15.42734 -14.27439,17.48689 -9.54535,10.80564 -11.27091,12.57344 -14.51846,14.87386 -4.82474,3.41767 -10.3219,4.68598 -16.20565,3.73902 -2.53645,-0.4078 -5.58968,-1.2165 -6.7851,-1.7961 z m 14.52423,-1.83035 c 4.76943,-1.27363 7.87748,-3.299 11.64577,-7.58891 1.33428,-1.51898 3.04714,-3.24677 3.80633,-3.83954 1.29131,-1.00821 5.07213,-5.59056 23.28951,-28.22685 4.00724,-4.97928 8.25049,-9.9919 9.42941,-11.13922 1.17896,-1.14729 6.96547,-8.25503 12.85889,-15.79499 10.3214,-13.20498 10.8188,-13.97426 13.52835,-20.92338 1.54712,-3.9679 3.71483,-10.57515 4.8171,-14.68273 1.7859,-6.65513 1.95354,-8.02611 1.53951,-12.59027 -0.87934,-9.693972 -4.23475,-16.605432 -10.459,-21.543395 -2.92788,-2.322798 -4.03072,-2.784044 -9.20321,-3.849076 -7.28946,-1.500905 -10.80938,-0.770871 -18.03177,3.739884 -5.98525,3.738109 -10.57329,8.077583 -15.33766,14.506747 -5.37871,7.25813 -6.5001,9.4992 -12.1735,24.32826 -8.55619,22.36405 -11.56331,27.74878 -25.98251,46.52581 -13.51718,17.6024 -15.60463,20.84518 -16.63957,25.84878 -2.37428,11.47915 5.77139,22.87628 18.22271,25.49652 3.51316,0.73931 5.10224,0.69036 8.68964,-0.26764 z"
     id="path4528"
     inkscape:connector-curvature="0" />
  <path
     style="fill:#000000;fill-opacity:1;stroke-width:0.66666669"
     d="m 38.37009,166.71104 c 1.326007,0.0818 4.5327,-0.0922 7.125977,-0.38665 8.170535,-0.92784 16.943559,-6.97168 20.306637,-13.98954 1.59863,-3.33588 1.22986,-10.28147 -1.67969,-31.63614 -3.539515,-25.978441 -3.553982,-31.364611 -0.14627,-54.435205 1.17721,-7.969876 2.18178,-16.154588 2.23239,-18.188253 C 66.469054,37.629026 62.659537,22.811454 57.552243,14.403291 52.292415,5.7440111 44.497704,1.0740741 35.540106,1.2154651 24.982767,1.3821091 16.772459,6.2563311 9.9257646,16.421973 c -3.210774,4.767202 -8.453322,22.864353 -8.845939,30.535949 -0.38619396,7.546364 1.200655,22.043202 3.880261,35.448467 1.27994,6.40318 3.590786,19.452301 5.1352064,28.998051 1.544425,9.54575 3.277676,19.55473 3.851673,22.24218 3.011505,14.09985 3.647021,16.48709 5.347031,20.08547 2.525649,5.346 6.692223,9.14956 12.283099,11.2129 2.410142,0.88946 5.466985,1.68417 6.792994,1.76605 z m -11.755204,-8.72462 c -3.529943,-3.45095 -5.243481,-6.74122 -6.42052,-12.32853 -0.416769,-1.97835 -1.060856,-4.32446 -1.431296,-5.2136 -0.630054,-1.51228 -1.674468,-7.3605 -6.433457,-36.02452 C 11.282785,98.114589 10.046736,91.664469 9.5828396,90.086189 9.1189386,88.507909 7.5668796,79.474929 6.1338256,70.0129 3.6240606,53.441733 3.5683666,52.527349 4.6191226,45.14305 5.2191066,40.926661 6.5740856,34.10622 7.6302086,29.986512 9.3413356,23.311777 9.8682956,22.035069 12.46956,18.261962 17.994459,10.248107 24.310612,5.8739351 32.157332,4.6274241 c 3.691067,-0.586354 4.878312,-0.446806 9.907488,1.164519 7.087475,2.270813 9.7957,4.6347659 13.873587,12.1100969 3.379389,6.194877 5.246282,12.227769 6.240978,20.167799 1.122955,8.963805 0.99978,11.466749 -1.337114,27.171128 -3.524322,23.684142 -3.547863,29.851592 -0.20338,53.288843 3.135273,21.97108 3.362003,25.82097 1.807363,30.68823 -3.566633,11.16635 -16.258165,17.09693 -28.392203,13.26732 -3.423664,-1.08053 -4.78406,-1.90324 -7.439165,-4.49894 z"
     id="path4528-2"
     inkscape:connector-curvature="0" />
  <path
     style="fill:#777777;fill-opacity:1;stroke-width:0.66666669"
     d="m 101.75372,166.3126 c -1.32601,0.0818 -4.532696,-0.0922 -7.125976,-0.38665 -8.17053,-0.92784 -16.94356,-6.97168 -20.30664,-13.98954 -1.59863,-3.33588 -1.22986,-10.28147 1.6797,-31.63614 3.53951,-25.978441 3.55398,-31.364611 0.14626,-54.43521 -1.17721,-7.969876 -2.18178,-16.154588 -2.23239,-18.188253 -0.25992,-10.446226 3.5496,-25.263798 8.6569,-33.671961 5.25983,-8.6592799 13.05453,-13.32921689 22.012126,-13.18782589 10.55734,0.166644 18.76765,5.04086599 25.61435,15.20650789 3.21077,4.767202 8.45332,22.864353 8.84594,30.535949 0.38619,7.546364 -1.20066,22.043202 -3.88027,35.448462 -1.27994,6.40319 -3.59078,19.452311 -5.1352,28.998061 -1.54443,9.54575 -3.27768,19.55473 -3.85167,22.24218 -3.01151,14.09985 -3.64703,16.48709 -5.34704,20.08547 -2.52565,5.346 -6.69222,9.14956 -12.2831,11.2129 -2.41014,0.88946 -5.46698,1.68417 -6.79299,1.76605 z m 11.7552,-8.72462 c 3.52995,-3.45095 5.24348,-6.74122 6.42052,-12.32853 0.41677,-1.97835 1.06086,-4.32446 1.4313,-5.2136 0.63006,-1.51228 1.67447,-7.3605 6.43346,-36.02452 1.04683,-6.305181 2.28288,-12.755301 2.74677,-14.333581 0.4639,-1.57828 2.01596,-10.61126 3.44902,-20.073294 2.50976,-16.571167 2.56545,-17.485551 1.5147,-24.86985 -0.59999,-4.216389 -1.95496,-11.03683 -3.01109,-15.156538 -1.71112,-6.674735 -2.23808,-7.951443 -4.83935,-11.72455 -5.5249,-8.0138549 -11.84105,-12.3880269 -19.68777,-13.6345379 -3.69107,-0.586354 -4.87832,-0.446806 -9.907486,1.164519 -7.08747,2.270813 -9.7957,4.6347659 -13.87359,12.1100969 -3.37939,6.194877 -5.24628,12.227769 -6.24097,20.167799 -1.12296,8.963805 -0.99978,11.466749 1.33711,27.171128 3.52432,23.684147 3.54786,29.851597 0.20338,53.288848 -3.13527,21.97108 -3.36201,25.82097 -1.80736,30.68823 3.56663,11.16635 16.25816,17.09693 28.392196,13.26732 3.42366,-1.08053 4.78406,-1.90324 7.43916,-4.49894 z"
     id="path4528-2-8"
     inkscape:connector-curvature="0" />
  <path
     style="fill:none;stroke:#fd0000;stroke-width:2.51338577;stroke-linecap:round;stroke-linejoin:miter;stroke-miterlimit:4;stroke-dasharray:none;stroke-opacity:1"
     d="m 152.35994,46.247892 c 25.50335,0.997254 33.78757,5.580352 48.97807,27.527825"
     id="path4560"
     inkscape:connector-curvature="0"
     sodipodi:nodetypes="cc" />
  <path
     style="fill:none;stroke:#fc0000;stroke-width:2.51338577;stroke-linecap:round;stroke-linejoin:miter;stroke-miterlimit:4;stroke-dasharray:none;stroke-opacity:1"
     d="m 201.69552,64.480607 -0.35751,9.29511 -8.9376,-2.860034"
     id="path4562"
     inkscape:connector-curvature="0"
     sodipodi:nodetypes="ccc" />
</svg>
